<?xml version="1.0" encoding="utf-8"?>
<!-- Generator: Adobe Illustrator 25.0.1, SVG Export Plug-In . SVG Version: 6.00 Build 0)  -->
<svg version="1.1" id="Layer_1" xmlns="http://www.w3.org/2000/svg" xmlns:xlink="http://www.w3.org/1999/xlink" x="0px" y="0px"
	 viewBox="0 0 1600 457.1" style="enable-background:new 0 0 1600 457.1;" xml:space="preserve">
<style type="text/css">
	.st0{display:none;}
	.st1{display:inline;fill:url(#SVGID_1_);}
	.st2{display:inline;opacity:0.1;fill:url(#SVGID_2_);enable-background:new    ;}
	.st3{fill:none;stroke:#8BBBFF;stroke-width:10.0112;stroke-miterlimit:10;}
	.st4{fill:none;stroke:#8BBBFF;stroke-width:8.3427;stroke-miterlimit:10;}
	.st5{fill:none;stroke:#FFFFFF;stroke-width:13.3483;stroke-miterlimit:10;}
	.st6{fill:none;stroke:#FFFFFF;stroke-width:11.6798;stroke-miterlimit:10;}
	.st7{fill:url(#SVGID_3_);stroke:url(#SVGID_4_);stroke-miterlimit:9.9999;}
	.st8{fill:url(#SVGID_5_);stroke:url(#SVGID_6_);stroke-miterlimit:9.9999;}
	.st9{fill:url(#SVGID_7_);stroke:url(#SVGID_8_);stroke-miterlimit:9.9999;}
	.st10{fill:url(#SVGID_9_);stroke:url(#SVGID_10_);stroke-miterlimit:9.9999;}
	.st11{fill:none;stroke:#FFFFFF;stroke-width:13.4579;stroke-miterlimit:10;}
	.st12{fill:none;stroke:#0096DF;stroke-width:6.8227;stroke-miterlimit:10;}
	.st13{fill:none;stroke:#FFFFFF;stroke-width:13.4578;stroke-miterlimit:9.9999;}
	.st14{fill:#D3DCFB;}
	.st15{fill:#EBF5FC;}
	.st16{fill:#3C58A0;}
	.st17{fill:#2A428C;}
	.st18{fill:#FF4155;}
	.st19{fill:#E80054;}
	.st20{fill:#4FABF7;}
	.st21{fill:#1886EA;}
	.st22{fill:#FFDD40;}
	.st23{fill:#FFB332;}
	.st24{fill:#4CE088;}
	.st25{fill:#E9EFFF;}
	.st26{fill:#FFDA45;}
	.st27{fill:#FAC800;}
	.st28{fill:#FFF5F5;}
	.st29{fill:#F0F5FA;}
	.st30{fill:#E4ECF2;}
	.st31{fill:#6E9EFF;}
	.st32{fill:#C5D7E6;}
	.st33{fill:#74D84B;}
	.st34{fill:#FC435F;}
	.st35{fill:#BF6930;}
	.st36{fill:#AD5F2C;}
	.st37{fill:#677A8F;}
	.st38{fill:#5895F9;}
	.st39{fill:#FFD064;}
	.st40{fill:#FFC250;}
</style>
<g class="st0">
	
		<linearGradient id="SVGID_1_" gradientUnits="userSpaceOnUse" x1="1981" y1="1641.0176" x2="381" y2="1641.0176" gradientTransform="matrix(1 0 0 1 -381 -1411.5176)">
		<stop  offset="0" style="stop-color:#24FFD7"/>
		<stop  offset="0.1751" style="stop-color:#1DECC9"/>
		<stop  offset="0.7317" style="stop-color:#08B3A0"/>
		<stop  offset="1" style="stop-color:#009D90"/>
	</linearGradient>
	<rect y="-158" class="st1" width="1600" height="775"/>
</g>
<g id="Layer_6" class="st0">
	
		<radialGradient id="SVGID_2_" cx="1166.8379" cy="2517.6392" r="1753.9479" gradientTransform="matrix(1 0 0 1 -381 -1411.5176)" gradientUnits="userSpaceOnUse">
		<stop  offset="0.1623" style="stop-color:#FFFBEF;stop-opacity:0"/>
		<stop  offset="0.2899" style="stop-color:#F7F9EF;stop-opacity:0.1523"/>
		<stop  offset="0.4862" style="stop-color:#E2F5EF;stop-opacity:0.3867"/>
		<stop  offset="0.7267" style="stop-color:#BEEDEF;stop-opacity:0.6737"/>
		<stop  offset="1" style="stop-color:#8EE3EF"/>
	</radialGradient>
	<path class="st2" d="M-11.8,816.9v2H1.5v20.9h2V819h38.9v20.9h2V819h38.9v20.9h2V819h38.9v20.9h2V819h38.9v20.9h2V819h38.5v20.9h2
		V819h38.9v20.9h2V819h38.9v20.9h2V819h38.9v20.9h2V819h38.9v20.9h2V819h38.9v20.9h2V819H451v20.9h2V819h38.9v20.9h2V819H533v20.9h2
		V819h38.9v20.9h2V819h38.5v20.9h2V819h38.9v20.9h2V819h38.9v20.9h2V819h38.9v20.9h2V819H778v20.9h2V819h39v20.9h2V819h38.9v20.9h2
		V819h38.9v20.9h2V819h38.9v20.9h2V819h38.9v20.9h2V819h38.5v20.9h2V819h38.9v20.9h2V819h38.9v20.9h2V819h38.9v20.9h2V819h38.9v20.9
		h2V819h38.9v20.9h2V819h38.9v20.9h2V819h38.9v20.9h2V819h38.9v20.9h2V819h38.9v20.9h2V819h38.5v20.9h2V819h38.9v20.9h2V819h38.9
		v20.9h2V819h38.9v20.9h2V819h38.9v20.9h2V819h14.1v-2h-14.1v-38.9h14.1v-2h-14.1v-38.9h14.1v-2h-14.1v-38.9h14.1v-2h-14.1v-38.5
		h14.1v-2h-14.1v-38.9h14.1v-2h-14.1V574h14.1v-2h-14.1v-39h14.1v-2h-14.1v-38.9h14.1v-2h-14.1v-38.9h14.1v-2h-14.1v-38.9h14.1v-2
		h-14.1v-38.9h14.1v-2h-14.1v-38.9h14.1v-2h-14.1v-38.9h14.1v-2h-14.1V247h14.1v-2h-14.1v-38.9h14.1v-2h-14.1v-38.9h14.1v-2h-14.1
		v-38.9h14.1v-2h-14.1v-39h14.1v-2h-14.1V42.4h14.1v-2h-14.1V1.5h14.1v-2h-14.1v-38.9h14.1v-2h-14.1v-38.9h14.1v-2h-14.1v-38.9h14.1
		v-2h-14.1v-38.5h14.1v-2h-14.1v-38.9h14.1v-2h-14.1v-38.9h14.1v-2h-14.1v-38.9h14.1v-2h-14.1v-38.9h14.1v-2h-14.1v-38.9h14.1v-2
		H-11.8v2H1.5v38.9h-13.3v2H1.5v38.9h-13.3v2H1.5v38.9h-13.3v2H1.5v38.9h-13.3v2H1.5v38.9h-13.3v2H1.5v38.5h-13.3v2H1.5v38.9h-13.3
		v2H1.5v38.9h-13.3v2H1.5v38.9h-13.3v2H1.5v38.9h-13.3v2H1.5v38.9h-13.3v2H1.5v38.9h-13.3v2H1.5v38.9h-13.3v2H1.5V204h-13.3v2H1.5
		v38.9h-13.3v2H1.5v38.5h-13.3v2H1.5v38.9h-13.3v2H1.5v38.9h-13.3v2H1.5v38.9h-13.3v2H1.5V449h-13.3v2H1.5v39h-13.3v2H1.5v38.9
		h-13.3v2H1.5v38.9h-13.3v2H1.5v38.9h-13.3v2H1.5v38.9h-13.3v2H1.5v38.5h-13.3v2H1.5V735h-13.3v2H1.5v39h-13.3v2H1.5v38.9H-11.8z
		 M1556.7-366.3h38.9v38.9h-38.9V-366.3z M1556.7-325.4h38.9v38.9h-38.9V-325.4z M1556.7-284.5h38.9v38.9h-38.9V-284.5z
		 M1556.7-243.6h38.9v38.9h-38.9V-243.6z M1556.7-202.7h38.9v38.9h-38.9V-202.7z M1556.7-161.8h38.9v38.5h-38.9V-161.8z
		 M1556.7-121.2h38.9v38.9h-38.9V-121.2z M1556.7-80.3h38.9v38.9h-38.9V-80.3z M1556.7-39.4h38.9v38.9h-38.9V-39.4z M1556.7,1.5
		h38.9v38.9h-38.9V1.5z M1556.7,42.4h38.9v38.9h-38.9V42.4z M1556.7,83.3h38.9v38.9h-38.9V83.3z M1556.7,124.2h38.9v38.9h-38.9
		V124.2z M1556.7,165.2h38.9V204h-38.9V165.2z M1556.7,206.1h38.9V245h-38.9V206.1z M1556.7,247h38.9v38.5h-38.9V247z M1556.7,287.5
		h38.9v38.9h-38.9V287.5z M1556.7,328.4h38.9v38.9h-38.9V328.4z M1556.7,369.3h38.9v38.9h-38.9V369.3z M1556.7,410.2h38.9v38.9
		h-38.9V410.2z M1556.7,451.2h38.9V490h-38.9V451.2z M1556.7,492.1h38.9V531h-38.9V492.1z M1556.7,533h38.9v38.9h-38.9V533z
		 M1556.7,573.9h38.9v38.9h-38.9V573.9z M1556.7,614.8h38.9v38.9h-38.9V614.8z M1556.7,655.7h38.9v38.5h-38.9V655.7z M1556.7,696.2
		h38.9v38.9h-38.9V696.2z M1556.7,737.2h38.9V776h-38.9V737.2z M1556.7,778.1h38.9V817h-38.9V778.1z M1515.8-366.3h38.9v38.9h-38.9
		V-366.3z M1515.8-325.4h38.9v38.9h-38.9V-325.4z M1515.8-284.5h38.9v38.9h-38.9V-284.5z M1515.8-243.6h38.9v38.9h-38.9V-243.6z
		 M1515.8-202.7h38.9v38.9h-38.9V-202.7z M1515.8-161.8h38.9v38.5h-38.9V-161.8z M1515.8-121.2h38.9v38.9h-38.9V-121.2z
		 M1515.8-80.3h38.9v38.9h-38.9V-80.3z M1515.8-39.4h38.9v38.9h-38.9V-39.4z M1515.8,1.5h38.9v38.9h-38.9V1.5z M1515.8,42.4h38.9
		v38.9h-38.9V42.4z M1515.8,83.3h38.9v38.9h-38.9V83.3z M1515.8,124.2h38.9v38.9h-38.9V124.2z M1515.8,165.2h38.9V204h-38.9V165.2z
		 M1515.8,206.1h38.9V245h-38.9V206.1z M1515.8,247h38.9v38.5h-38.9V247z M1515.8,287.5h38.9v38.9h-38.9V287.5z M1515.8,328.4h38.9
		v38.9h-38.9V328.4z M1515.8,369.3h38.9v38.9h-38.9V369.3z M1515.8,410.2h38.9v38.9h-38.9V410.2z M1515.8,451.2h38.9V490h-38.9
		V451.2z M1515.8,492.1h38.9V531h-38.9V492.1z M1515.8,533h38.9v38.9h-38.9V533z M1515.8,573.9h38.9v38.9h-38.9V573.9z
		 M1515.8,614.8h38.9v38.9h-38.9V614.8z M1515.8,655.7h38.9v38.5h-38.9V655.7z M1515.8,696.2h38.9v38.9h-38.9V696.2z M1515.8,737.2
		h38.9V776h-38.9V737.2z M1515.8,778.1h38.9V817h-38.9V778.1z M1474.9-366.3h38.9v38.9h-38.9V-366.3z M1474.9-325.4h38.9v38.9h-38.9
		V-325.4z M1474.9-284.5h38.9v38.9h-38.9V-284.5z M1474.9-243.6h38.9v38.9h-38.9V-243.6z M1474.9-202.7h38.9v38.9h-38.9V-202.7z
		 M1474.9-161.8h38.9v38.5h-38.9V-161.8z M1474.9-121.2h38.9v38.9h-38.9V-121.2z M1474.9-80.3h38.9v38.9h-38.9V-80.3z M1474.9-39.4
		h38.9v38.9h-38.9V-39.4z M1474.9,1.5h38.9v38.9h-38.9V1.5z M1474.9,42.4h38.9v38.9h-38.9V42.4z M1474.9,83.3h38.9v38.9h-38.9V83.3z
		 M1474.9,124.2h38.9v38.9h-38.9V124.2z M1474.9,165.2h38.9V204h-38.9V165.2z M1474.9,206.1h38.9V245h-38.9V206.1z M1474.9,247h38.9
		v38.5h-38.9V247z M1474.9,287.5h38.9v38.9h-38.9V287.5z M1474.9,328.4h38.9v38.9h-38.9V328.4z M1474.9,369.3h38.9v38.9h-38.9V369.3
		z M1474.9,410.2h38.9v38.9h-38.9V410.2z M1474.9,451.2h38.9V490h-38.9V451.2z M1474.9,492.1h38.9V531h-38.9V492.1z M1474.9,533
		h38.9v38.9h-38.9V533z M1474.9,573.9h38.9v38.9h-38.9V573.9z M1474.9,614.8h38.9v38.9h-38.9V614.8z M1474.9,655.7h38.9v38.5h-38.9
		V655.7z M1474.9,696.2h38.9v38.9h-38.9V696.2z M1474.9,737.2h38.9V776h-38.9V737.2z M1474.9,778.1h38.9V817h-38.9V778.1z
		 M1434-366.3h38.9v38.9H1434V-366.3z M1434-325.4h38.9v38.9H1434V-325.4z M1434-284.5h38.9v38.9H1434V-284.5z M1434-243.6h38.9
		v38.9H1434V-243.6z M1434-202.7h38.9v38.9H1434V-202.7z M1434-161.8h38.9v38.5H1434V-161.8z M1434-121.2h38.9v38.9H1434V-121.2z
		 M1434-80.3h38.9v38.9H1434V-80.3z M1434-39.4h38.9v38.9H1434V-39.4z M1434,1.5h38.9v38.9H1434V1.5z M1434,42.4h38.9v38.9H1434
		V42.4z M1434,83.3h38.9v38.9H1434V83.3z M1434,124.2h38.9v38.9H1434V124.2z M1434,165.2h38.9V204H1434V165.2z M1434,206.1h38.9V245
		H1434V206.1z M1434,247h38.9v38.5H1434V247z M1434,287.5h38.9v38.9H1434V287.5z M1434,328.4h38.9v38.9H1434V328.4z M1434,369.3
		h38.9v38.9H1434V369.3z M1434,410.2h38.9v38.9H1434V410.2z M1434,451.2h38.9V490H1434V451.2z M1434,492.1h38.9V531H1434V492.1z
		 M1434,533h38.9v38.9H1434V533z M1434,573.9h38.9v38.9H1434V573.9z M1434,614.8h38.9v38.9H1434V614.8z M1434,655.7h38.9v38.5H1434
		V655.7z M1434,696.2h38.9v38.9H1434V696.2z M1434,737.2h38.9V776H1434V737.2z M1434,778.1h38.9V817H1434V778.1z M1393.5-366.3h38.5
		v38.9h-38.5V-366.3z M1393.5-325.4h38.5v38.9h-38.5V-325.4z M1393.5-284.5h38.5v38.9h-38.5V-284.5z M1393.5-243.6h38.5v38.9h-38.5
		V-243.6z M1393.5-202.7h38.5v38.9h-38.5V-202.7z M1393.5-161.8h38.5v38.5h-38.5V-161.8z M1393.5-121.2h38.5v38.9h-38.5V-121.2z
		 M1393.5-80.3h38.5v38.9h-38.5V-80.3z M1393.5-39.4h38.5v38.9h-38.5V-39.4z M1393.5,1.5h38.5v38.9h-38.5V1.5z M1393.5,42.4h38.5
		v38.9h-38.5V42.4z M1393.5,83.3h38.5v38.9h-38.5V83.3z M1393.5,124.2h38.5v38.9h-38.5V124.2z M1393.5,165.2h38.5V204h-38.5V165.2z
		 M1393.5,206.1h38.5V245h-38.5V206.1z M1393.5,247h38.5v38.5h-38.5V247z M1393.5,287.5h38.5v38.9h-38.5V287.5z M1393.5,328.4h38.5
		v38.9h-38.5V328.4z M1393.5,369.3h38.5v38.9h-38.5V369.3z M1393.5,410.2h38.5v38.9h-38.5V410.2z M1393.5,451.2h38.5V490h-38.5
		V451.2z M1393.5,492.1h38.5V531h-38.5V492.1z M1393.5,533h38.5v38.9h-38.5V533z M1393.5,573.9h38.5v38.9h-38.5V573.9z
		 M1393.5,614.8h38.5v38.9h-38.5V614.8z M1393.5,655.7h38.5v38.5h-38.5V655.7z M1393.5,696.2h38.5v38.9h-38.5V696.2z M1393.5,737.2
		h38.5V776h-38.5V737.2z M1393.5,778.1h38.5V817h-38.5V778.1z M1352.6-366.3h38.9v38.9h-38.9V-366.3z M1352.6-325.4h38.9v38.9h-38.9
		V-325.4z M1352.6-284.5h38.9v38.9h-38.9V-284.5z M1352.6-243.6h38.9v38.9h-38.9V-243.6z M1352.6-202.7h38.9v38.9h-38.9V-202.7z
		 M1352.6-161.8h38.9v38.5h-38.9V-161.8z M1352.6-121.2h38.9v38.9h-38.9V-121.2z M1352.6-80.3h38.9v38.9h-38.9V-80.3z M1352.6-39.4
		h38.9v38.9h-38.9V-39.4z M1352.6,1.5h38.9v38.9h-38.9V1.5z M1352.6,42.4h38.9v38.9h-38.9V42.4z M1352.6,83.3h38.9v38.9h-38.9V83.3z
		 M1352.6,124.2h38.9v38.9h-38.9V124.2z M1352.6,165.2h38.9V204h-38.9V165.2z M1352.6,206.1h38.9V245h-38.9V206.1z M1352.6,247h38.9
		v38.5h-38.9V247z M1352.6,287.5h38.9v38.9h-38.9V287.5z M1352.6,328.4h38.9v38.9h-38.9V328.4z M1352.6,369.3h38.9v38.9h-38.9V369.3
		z M1352.6,410.2h38.9v38.9h-38.9V410.2z M1352.6,451.2h38.9V490h-38.9V451.2z M1352.6,492.1h38.9V531h-38.9V492.1z M1352.6,533
		h38.9v38.9h-38.9V533z M1352.6,573.9h38.9v38.9h-38.9V573.9z M1352.6,614.8h38.9v38.9h-38.9V614.8z M1352.6,655.7h38.9v38.5h-38.9
		V655.7z M1352.6,696.2h38.9v38.9h-38.9V696.2z M1352.6,737.2h38.9V776h-38.9V737.2z M1352.6,778.1h38.9V817h-38.9V778.1z
		 M1311.7-366.3h38.9v38.9h-38.9V-366.3z M1311.7-325.4h38.9v38.9h-38.9V-325.4z M1311.7-284.5h38.9v38.9h-38.9V-284.5z
		 M1311.7-243.6h38.9v38.9h-38.9V-243.6z M1311.7-202.7h38.9v38.9h-38.9V-202.7z M1311.7-161.8h38.9v38.5h-38.9V-161.8z
		 M1311.7-121.2h38.9v38.9h-38.9V-121.2z M1311.7-80.3h38.9v38.9h-38.9V-80.3z M1311.7-39.4h38.9v38.9h-38.9V-39.4z M1311.7,1.5
		h38.9v38.9h-38.9V1.5z M1311.7,42.4h38.9v38.9h-38.9V42.4z M1311.7,83.3h38.9v38.9h-38.9V83.3z M1311.7,124.2h38.9v38.9h-38.9
		V124.2z M1311.7,165.2h38.9V204h-38.9V165.2z M1311.7,206.1h38.9V245h-38.9V206.1z M1311.7,247h38.9v38.5h-38.9V247z M1311.7,287.5
		h38.9v38.9h-38.9V287.5z M1311.7,328.4h38.9v38.9h-38.9V328.4z M1311.7,369.3h38.9v38.9h-38.9V369.3z M1311.7,410.2h38.9v38.9
		h-38.9V410.2z M1311.7,451.2h38.9V490h-38.9V451.2z M1311.7,492.1h38.9V531h-38.9V492.1z M1311.7,533h38.9v38.9h-38.9V533z
		 M1311.7,573.9h38.9v38.9h-38.9V573.9z M1311.7,614.8h38.9v38.9h-38.9V614.8z M1311.7,655.7h38.9v38.5h-38.9V655.7z M1311.7,696.2
		h38.9v38.9h-38.9V696.2z M1311.7,737.2h38.9V776h-38.9V737.2z M1311.7,778.1h38.9V817h-38.9V778.1z M1270.7-366.3h38.9v38.9h-38.9
		V-366.3z M1270.7-325.4h38.9v38.9h-38.9V-325.4z M1270.7-284.5h38.9v38.9h-38.9V-284.5z M1270.7-243.6h38.9v38.9h-38.9V-243.6z
		 M1270.7-202.7h38.9v38.9h-38.9V-202.7z M1270.7-161.8h38.9v38.5h-38.9V-161.8z M1270.7-121.2h38.9v38.9h-38.9V-121.2z
		 M1270.7-80.3h38.9v38.9h-38.9V-80.3z M1270.7-39.4h38.9v38.9h-38.9V-39.4z M1270.7,1.5h38.9v38.9h-38.9V1.5z M1270.7,42.4h38.9
		v38.9h-38.9V42.4z M1270.7,83.3h38.9v38.9h-38.9V83.3z M1270.7,124.2h38.9v38.9h-38.9V124.2z M1270.7,165.2h38.9V204h-38.9V165.2z
		 M1270.7,206.1h38.9V245h-38.9V206.1z M1270.7,247h38.9v38.5h-38.9V247z M1270.7,287.5h38.9v38.9h-38.9V287.5z M1270.7,328.4h38.9
		v38.9h-38.9V328.4z M1270.7,369.3h38.9v38.9h-38.9V369.3z M1270.7,410.2h38.9v38.9h-38.9V410.2z M1270.7,451.2h38.9V490h-38.9
		V451.2z M1270.7,492.1h38.9V531h-38.9V492.1z M1270.7,533h38.9v38.9h-38.9V533z M1270.7,573.9h38.9v38.9h-38.9V573.9z
		 M1270.7,614.8h38.9v38.9h-38.9V614.8z M1270.7,655.7h38.9v38.5h-38.9V655.7z M1270.7,696.2h38.9v38.9h-38.9V696.2z M1270.7,737.2
		h38.9V776h-38.9V737.2z M1270.7,778.1h38.9V817h-38.9V778.1z M1229.8-366.3h38.9v38.9h-38.9V-366.3z M1229.8-325.4h38.9v38.9h-38.9
		V-325.4z M1229.8-284.5h38.9v38.9h-38.9V-284.5z M1229.8-243.6h38.9v38.9h-38.9V-243.6z M1229.8-202.7h38.9v38.9h-38.9V-202.7z
		 M1229.8-161.8h38.9v38.5h-38.9V-161.8z M1229.8-121.2h38.9v38.9h-38.9V-121.2z M1229.8-80.3h38.9v38.9h-38.9V-80.3z M1229.8-39.4
		h38.9v38.9h-38.9V-39.4z M1229.8,1.5h38.9v38.9h-38.9V1.5z M1229.8,42.4h38.9v38.9h-38.9V42.4z M1229.8,83.3h38.9v38.9h-38.9V83.3z
		 M1229.8,124.2h38.9v38.9h-38.9V124.2z M1229.8,165.2h38.9V204h-38.9V165.2z M1229.8,206.1h38.9V245h-38.9V206.1z M1229.8,247h38.9
		v38.5h-38.9V247z M1229.8,287.5h38.9v38.9h-38.9V287.5z M1229.8,328.4h38.9v38.9h-38.9V328.4z M1229.8,369.3h38.9v38.9h-38.9V369.3
		z M1229.8,410.2h38.9v38.9h-38.9V410.2z M1229.8,451.2h38.9V490h-38.9V451.2z M1229.8,492.1h38.9V531h-38.9V492.1z M1229.8,533
		h38.9v38.9h-38.9V533z M1229.8,573.9h38.9v38.9h-38.9V573.9z M1229.8,614.8h38.9v38.9h-38.9V614.8z M1229.8,655.7h38.9v38.5h-38.9
		V655.7z M1229.8,696.2h38.9v38.9h-38.9V696.2z M1229.8,737.2h38.9V776h-38.9V737.2z M1229.8,778.1h38.9V817h-38.9V778.1z
		 M1188.9-366.3h38.9v38.9h-38.9V-366.3z M1188.9-325.4h38.9v38.9h-38.9V-325.4z M1188.9-284.5h38.9v38.9h-38.9V-284.5z
		 M1188.9-243.6h38.9v38.9h-38.9V-243.6z M1188.9-202.7h38.9v38.9h-38.9V-202.7z M1188.9-161.8h38.9v38.5h-38.9V-161.8z
		 M1188.9-121.2h38.9v38.9h-38.9V-121.2z M1188.9-80.3h38.9v38.9h-38.9V-80.3z M1188.9-39.4h38.9v38.9h-38.9V-39.4z M1188.9,1.5
		h38.9v38.9h-38.9V1.5z M1188.9,42.4h38.9v38.9h-38.9V42.4z M1188.9,83.3h38.9v38.9h-38.9V83.3z M1188.9,124.2h38.9v38.9h-38.9
		V124.2z M1188.9,165.2h38.9V204h-38.9V165.2z M1188.9,206.1h38.9V245h-38.9V206.1z M1188.9,247h38.9v38.5h-38.9V247z M1188.9,287.5
		h38.9v38.9h-38.9V287.5z M1188.9,328.4h38.9v38.9h-38.9V328.4z M1188.9,369.3h38.9v38.9h-38.9V369.3z M1188.9,410.2h38.9v38.9
		h-38.9V410.2z M1188.9,451.2h38.9V490h-38.9V451.2z M1188.9,492.1h38.9V531h-38.9V492.1z M1188.9,533h38.9v38.9h-38.9V533z
		 M1188.9,573.9h38.9v38.9h-38.9V573.9z M1188.9,614.8h38.9v38.9h-38.9V614.8z M1188.9,655.7h38.9v38.5h-38.9V655.7z M1188.9,696.2
		h38.9v38.9h-38.9V696.2z M1188.9,737.2h38.9V776h-38.9V737.2z M1188.9,778.1h38.9V817h-38.9V778.1z M1148-366.3h38.9v38.9H1148
		V-366.3z M1148-325.4h38.9v38.9H1148V-325.4z M1148-284.5h38.9v38.9H1148V-284.5z M1148-243.6h38.9v38.9H1148V-243.6z M1148-202.7
		h38.9v38.9H1148V-202.7z M1148-161.8h38.9v38.5H1148V-161.8z M1148-121.2h38.9v38.9H1148V-121.2z M1148-80.3h38.9v38.9H1148V-80.3z
		 M1148-39.4h38.9v38.9H1148V-39.4z M1148,1.5h38.9v38.9H1148V1.5z M1148,42.4h38.9v38.9H1148V42.4z M1148,83.3h38.9v38.9H1148V83.3
		z M1148,124.2h38.9v38.9H1148V124.2z M1148,165.2h38.9V204H1148V165.2z M1148,206.1h38.9V245H1148V206.1z M1148,247h38.9v38.5H1148
		V247z M1148,287.5h38.9v38.9H1148V287.5z M1148,328.4h38.9v38.9H1148V328.4z M1148,369.3h38.9v38.9H1148V369.3z M1148,410.2h38.9
		v38.9H1148V410.2z M1148,451.2h38.9V490H1148V451.2z M1148,492.1h38.9V531H1148V492.1z M1148,533h38.9v38.9H1148V533z M1148,573.9
		h38.9v38.9H1148V573.9z M1148,614.8h38.9v38.9H1148V614.8z M1148,655.7h38.9v38.5H1148V655.7z M1148,696.2h38.9v38.9H1148V696.2z
		 M1148,737.2h38.9V776H1148V737.2z M1148,778.1h38.9V817H1148V778.1z M1107.1-366.3h38.9v38.9h-38.9V-366.3z M1107.1-325.4h38.9
		v38.9h-38.9V-325.4z M1107.1-284.5h38.9v38.9h-38.9V-284.5z M1107.1-243.6h38.9v38.9h-38.9V-243.6z M1107.1-202.7h38.9v38.9h-38.9
		V-202.7z M1107.1-161.8h38.9v38.5h-38.9V-161.8z M1107.1-121.2h38.9v38.9h-38.9V-121.2z M1107.1-80.3h38.9v38.9h-38.9V-80.3z
		 M1107.1-39.4h38.9v38.9h-38.9V-39.4z M1107.1,1.5h38.9v38.9h-38.9V1.5z M1107.1,42.4h38.9v38.9h-38.9V42.4z M1107.1,83.3h38.9
		v38.9h-38.9V83.3z M1107.1,124.2h38.9v38.9h-38.9V124.2z M1107.1,165.2h38.9V204h-38.9V165.2z M1107.1,206.1h38.9V245h-38.9V206.1z
		 M1107.1,247h38.9v38.5h-38.9V247z M1107.1,287.5h38.9v38.9h-38.9V287.5z M1107.1,328.4h38.9v38.9h-38.9V328.4z M1107.1,369.3h38.9
		v38.9h-38.9V369.3z M1107.1,410.2h38.9v38.9h-38.9V410.2z M1107.1,451.2h38.9V490h-38.9V451.2z M1107.1,492.1h38.9V531h-38.9V492.1
		z M1107.1,533h38.9v38.9h-38.9V533z M1107.1,573.9h38.9v38.9h-38.9V573.9z M1107.1,614.8h38.9v38.9h-38.9V614.8z M1107.1,655.7
		h38.9v38.5h-38.9V655.7z M1107.1,696.2h38.9v38.9h-38.9V696.2z M1107.1,737.2h38.9V776h-38.9V737.2z M1107.1,778.1h38.9V817h-38.9
		V778.1z M1066.2-366.3h38.9v38.9h-38.9V-366.3z M1066.2-325.4h38.9v38.9h-38.9V-325.4z M1066.2-284.5h38.9v38.9h-38.9V-284.5z
		 M1066.2-243.6h38.9v38.9h-38.9V-243.6z M1066.2-202.7h38.9v38.9h-38.9V-202.7z M1066.2-161.8h38.9v38.5h-38.9V-161.8z
		 M1066.2-121.2h38.9v38.9h-38.9V-121.2z M1066.2-80.3h38.9v38.9h-38.9V-80.3z M1066.2-39.4h38.9v38.9h-38.9V-39.4z M1066.2,1.5
		h38.9v38.9h-38.9V1.5z M1066.2,42.4h38.9v38.9h-38.9V42.4z M1066.2,83.3h38.9v38.9h-38.9V83.3z M1066.2,124.2h38.9v38.9h-38.9
		V124.2z M1066.2,165.2h38.9V204h-38.9V165.2z M1066.2,206.1h38.9V245h-38.9V206.1z M1066.2,247h38.9v38.5h-38.9V247z M1066.2,287.5
		h38.9v38.9h-38.9V287.5z M1066.2,328.4h38.9v38.9h-38.9V328.4z M1066.2,369.3h38.9v38.9h-38.9V369.3z M1066.2,410.2h38.9v38.9
		h-38.9V410.2z M1066.2,451.2h38.9V490h-38.9V451.2z M1066.2,492.1h38.9V531h-38.9V492.1z M1066.2,533h38.9v38.9h-38.9V533z
		 M1066.2,573.9h38.9v38.9h-38.9V573.9z M1066.2,614.8h38.9v38.9h-38.9V614.8z M1066.2,655.7h38.9v38.5h-38.9V655.7z M1066.2,696.2
		h38.9v38.9h-38.9V696.2z M1066.2,737.2h38.9V776h-38.9V737.2z M1066.2,778.1h38.9V817h-38.9V778.1z M1025.2-366.3h38.9v38.9h-38.9
		V-366.3z M1025.2-325.4h38.9v38.9h-38.9V-325.4z M1025.2-284.5h38.9v38.9h-38.9V-284.5z M1025.2-243.6h38.9v38.9h-38.9V-243.6z
		 M1025.2-202.7h38.9v38.9h-38.9V-202.7z M1025.2-161.8h38.9v38.5h-38.9V-161.8z M1025.2-121.2h38.9v38.9h-38.9V-121.2z
		 M1025.2-80.3h38.9v38.9h-38.9V-80.3z M1025.2-39.4h38.9v38.9h-38.9V-39.4z M1025.2,1.5h38.9v38.9h-38.9V1.5z M1025.2,42.4h38.9
		v38.9h-38.9V42.4z M1025.2,83.3h38.9v38.9h-38.9V83.3z M1025.2,124.2h38.9v38.9h-38.9V124.2z M1025.2,165.2h38.9V204h-38.9V165.2z
		 M1025.2,206.1h38.9V245h-38.9V206.1z M1025.2,247h38.9v38.5h-38.9V247z M1025.2,287.5h38.9v38.9h-38.9V287.5z M1025.2,328.4h38.9
		v38.9h-38.9V328.4z M1025.2,369.3h38.9v38.9h-38.9V369.3z M1025.2,410.2h38.9v38.9h-38.9V410.2z M1025.2,451.2h38.9V490h-38.9
		V451.2z M1025.2,492.1h38.9V531h-38.9V492.1z M1025.2,533h38.9v38.9h-38.9V533z M1025.2,573.9h38.9v38.9h-38.9V573.9z
		 M1025.2,614.8h38.9v38.9h-38.9V614.8z M1025.2,655.7h38.9v38.5h-38.9V655.7z M1025.2,696.2h38.9v38.9h-38.9V696.2z M1025.2,737.2
		h38.9V776h-38.9V737.2z M1025.2,778.1h38.9V817h-38.9V778.1z M984.7-366.3h38.5v38.9h-38.5V-366.3z M984.7-325.4h38.5v38.9h-38.5
		V-325.4z M984.7-284.5h38.5v38.9h-38.5V-284.5z M984.7-243.6h38.5v38.9h-38.5V-243.6z M984.7-202.7h38.5v38.9h-38.5V-202.7z
		 M984.7-161.8h38.5v38.5h-38.5V-161.8z M984.7-121.2h38.5v38.9h-38.5V-121.2z M984.7-80.3h38.5v38.9h-38.5V-80.3z M984.7-39.4h38.5
		v38.9h-38.5V-39.4z M984.7,1.5h38.5v38.9h-38.5V1.5z M984.7,42.4h38.5v38.9h-38.5V42.4z M984.7,83.3h38.5v38.9h-38.5V83.3z
		 M984.7,124.2h38.5v38.9h-38.5V124.2z M984.7,165.2h38.5V204h-38.5V165.2z M984.7,206.1h38.5V245h-38.5V206.1z M984.7,247h38.5
		v38.5h-38.5V247z M984.7,287.5h38.5v38.9h-38.5V287.5z M984.7,328.4h38.5v38.9h-38.5V328.4z M984.7,369.3h38.5v38.9h-38.5V369.3z
		 M984.7,410.2h38.5v38.9h-38.5V410.2z M984.7,451.2h38.5V490h-38.5V451.2z M984.7,492.1h38.5V531h-38.5V492.1z M984.7,533h38.5
		v38.9h-38.5V533z M984.7,573.9h38.5v38.9h-38.5V573.9z M984.7,614.8h38.5v38.9h-38.5V614.8z M984.7,655.7h38.5v38.5h-38.5V655.7z
		 M984.7,696.2h38.5v38.9h-38.5V696.2z M984.7,737.2h38.5V776h-38.5V737.2z M984.7,778.1h38.5V817h-38.5V778.1z M943.8-366.3h38.9
		v38.9h-38.9V-366.3z M943.8-325.4h38.9v38.9h-38.9V-325.4z M943.8-284.5h38.9v38.9h-38.9V-284.5z M943.8-243.6h38.9v38.9h-38.9
		V-243.6z M943.8-202.7h38.9v38.9h-38.9V-202.7z M943.8-161.8h38.9v38.5h-38.9V-161.8z M943.8-121.2h38.9v38.9h-38.9V-121.2z
		 M943.8-80.3h38.9v38.9h-38.9V-80.3z M943.8-39.4h38.9v38.9h-38.9V-39.4z M943.8,1.5h38.9v38.9h-38.9V1.5z M943.8,42.4h38.9v38.9
		h-38.9V42.4z M943.8,83.3h38.9v38.9h-38.9V83.3z M943.8,124.2h38.9v38.9h-38.9V124.2z M943.8,165.2h38.9V204h-38.9V165.2z
		 M943.8,206.1h38.9V245h-38.9V206.1z M943.8,247h38.9v38.5h-38.9V247z M943.8,287.5h38.9v38.9h-38.9V287.5z M943.8,328.4h38.9v38.9
		h-38.9V328.4z M943.8,369.3h38.9v38.9h-38.9V369.3z M943.8,410.2h38.9v38.9h-38.9V410.2z M943.8,451.2h38.9V490h-38.9V451.2z
		 M943.8,492.1h38.9V531h-38.9V492.1z M943.8,533h38.9v38.9h-38.9V533z M943.8,573.9h38.9v38.9h-38.9V573.9z M943.8,614.8h38.9v38.9
		h-38.9V614.8z M943.8,655.7h38.9v38.5h-38.9V655.7z M943.8,696.2h38.9v38.9h-38.9V696.2z M943.8,737.2h38.9V776h-38.9V737.2z
		 M943.8,778.1h38.9V817h-38.9V778.1z M902.9-366.3h38.9v38.9h-38.9V-366.3z M902.9-325.4h38.9v38.9h-38.9V-325.4z M902.9-284.5
		h38.9v38.9h-38.9V-284.5z M902.9-243.6h38.9v38.9h-38.9V-243.6z M902.9-202.7h38.9v38.9h-38.9V-202.7z M902.9-161.8h38.9v38.5
		h-38.9V-161.8z M902.9-121.2h38.9v38.9h-38.9V-121.2z M902.9-80.3h38.9v38.9h-38.9V-80.3z M902.9-39.4h38.9v38.9h-38.9V-39.4z
		 M902.9,1.5h38.9v38.9h-38.9V1.5z M902.9,42.4h38.9v38.9h-38.9V42.4z M902.9,83.3h38.9v38.9h-38.9V83.3z M902.9,124.2h38.9v38.9
		h-38.9V124.2z M902.9,165.2h38.9V204h-38.9V165.2z M902.9,206.1h38.9V245h-38.9V206.1z M902.9,247h38.9v38.5h-38.9V247z
		 M902.9,287.5h38.9v38.9h-38.9V287.5z M902.9,328.4h38.9v38.9h-38.9V328.4z M902.9,369.3h38.9v38.9h-38.9V369.3z M902.9,410.2h38.9
		v38.9h-38.9V410.2z M902.9,451.2h38.9V490h-38.9V451.2z M902.9,492.1h38.9V531h-38.9V492.1z M902.9,533h38.9v38.9h-38.9V533z
		 M902.9,573.9h38.9v38.9h-38.9V573.9z M902.9,614.8h38.9v38.9h-38.9V614.8z M902.9,655.7h38.9v38.5h-38.9V655.7z M902.9,696.2h38.9
		v38.9h-38.9V696.2z M902.9,737.2h38.9V776h-38.9V737.2z M902.9,778.1h38.9V817h-38.9V778.1z M862-366.3h38.9v38.9H862V-366.3z
		 M862-325.4h38.9v38.9H862V-325.4z M862-284.5h38.9v38.9H862V-284.5z M862-243.6h38.9v38.9H862V-243.6z M862-202.7h38.9v38.9H862
		V-202.7z M862-161.8h38.9v38.5H862V-161.8z M862-121.2h38.9v38.9H862V-121.2z M862-80.3h38.9v38.9H862V-80.3z M862-39.4h38.9v38.9
		H862V-39.4z M862,1.5h38.9v38.9H862V1.5z M862,42.4h38.9v38.9H862V42.4z M862,83.3h38.9v38.9H862V83.3z M862,124.2h38.9v38.9H862
		V124.2z M862,165.2h38.9V204H862V165.2z M862,206.1h38.9V245H862V206.1z M862,247h38.9v38.5H862V247z M862,287.5h38.9v38.9H862
		V287.5z M862,328.4h38.9v38.9H862V328.4z M862,369.3h38.9v38.9H862V369.3z M862,410.2h38.9v38.9H862V410.2z M862,451.2h38.9V490
		H862V451.2z M862,492.1h38.9V531H862V492.1z M862,533h38.9v38.9H862V533z M862,573.9h38.9v38.9H862V573.9z M862,614.8h38.9v38.9
		H862V614.8z M862,655.7h38.9v38.5H862V655.7z M862,696.2h38.9v38.9H862V696.2z M862,737.2h38.9V776H862V737.2z M862,778.1h38.9V817
		H862V778.1z M821.1-366.3H860v38.9h-38.9V-366.3z M821.1-325.4H860v38.9h-38.9V-325.4z M821.1-284.5H860v38.9h-38.9V-284.5z
		 M821.1-243.6H860v38.9h-38.9V-243.6z M821.1-202.7H860v38.9h-38.9V-202.7z M821.1-161.8H860v38.5h-38.9V-161.8z M821.1-121.2H860
		v38.9h-38.9V-121.2z M821.1-80.3H860v38.9h-38.9V-80.3z M821.1-39.4H860v38.9h-38.9V-39.4z M821.1,1.5H860v38.9h-38.9V1.5z
		 M821.1,42.4H860v38.9h-38.9V42.4z M821.1,83.3H860v38.9h-38.9V83.3z M821.1,124.2H860v38.9h-38.9V124.2z M821.1,165.2H860V204
		h-38.9V165.2z M821.1,206.1H860V245h-38.9V206.1z M821.1,247H860v38.5h-38.9V247z M821.1,287.5H860v38.9h-38.9V287.5z M821.1,328.4
		H860v38.9h-38.9V328.4z M821.1,369.3H860v38.9h-38.9V369.3z M821.1,410.2H860v38.9h-38.9V410.2z M821.1,451.2H860V490h-38.9V451.2z
		 M821.1,492.1H860V531h-38.9V492.1z M821.1,533H860v38.9h-38.9V533z M821.1,573.9H860v38.9h-38.9V573.9z M821.1,614.8H860v38.9
		h-38.9V614.8z M821.1,655.7H860v38.5h-38.9V655.7z M821.1,696.2H860v38.9h-38.9V696.2z M821.1,737.2H860V776h-38.9V737.2z
		 M821.1,778.1H860V817h-38.9V778.1z M780.1-366.3H819v38.9h-38.9V-366.3z M780.1-325.4H819v38.9h-38.9V-325.4z M780.1-284.5H819
		v38.9h-38.9V-284.5z M780.1-243.6H819v38.9h-38.9V-243.6z M780.1-202.7H819v38.9h-38.9V-202.7z M780.1-161.8H819v38.5h-38.9V-161.8
		z M780.1-121.2H819v38.9h-38.9V-121.2z M780.1-80.3H819v38.9h-38.9V-80.3z M780.1-39.4H819v38.9h-38.9V-39.4z M780.1,1.5H819v38.9
		h-38.9V1.5z M780.1,42.4H819v38.9h-38.9V42.4z M780.1,83.3H819v38.9h-38.9V83.3z M780.1,124.2H819v38.9h-38.9V124.2z M780.1,165.2
		H819V204h-38.9V165.2z M780.1,206.1H819V245h-38.9V206.1z M780.1,247H819v38.5h-38.9V247z M780.1,287.5H819v38.9h-38.9V287.5z
		 M780.1,328.4H819v38.9h-38.9V328.4z M780.1,369.3H819v38.9h-38.9V369.3z M780.1,410.2H819v38.9h-38.9V410.2z M780.1,451.2H819V490
		h-38.9V451.2z M780.1,492.1H819V531h-38.9V492.1z M780.1,533H819v38.9h-38.9V533z M780.1,573.9H819v38.9h-38.9V573.9z M780.1,614.8
		H819v38.9h-38.9V614.8z M780.1,655.7H819v38.5h-38.9V655.7z M780.1,696.2H819v38.9h-38.9V696.2z M780.1,737.2H819V776h-38.9V737.2z
		 M780.1,778.1H819V817h-38.9V778.1z M739.2-366.3h38.9v38.9h-38.9V-366.3z M739.2-325.4h38.9v38.9h-38.9V-325.4z M739.2-284.5h38.9
		v38.9h-38.9V-284.5z M739.2-243.6h38.9v38.9h-38.9V-243.6z M739.2-202.7h38.9v38.9h-38.9V-202.7z M739.2-161.8h38.9v38.5h-38.9
		V-161.8z M739.2-121.2h38.9v38.9h-38.9V-121.2z M739.2-80.3h38.9v38.9h-38.9V-80.3z M739.2-39.4h38.9v38.9h-38.9V-39.4z M739.2,1.5
		h38.9v38.9h-38.9V1.5z M739.2,42.4h38.9v38.9h-38.9V42.4z M739.2,83.3h38.9v38.9h-38.9V83.3z M739.2,124.2h38.9v38.9h-38.9V124.2z
		 M739.2,165.2h38.9V204h-38.9V165.2z M739.2,206.1h38.9V245h-38.9V206.1z M739.2,247h38.9v38.5h-38.9V247z M739.2,287.5h38.9v38.9
		h-38.9V287.5z M739.2,328.4h38.9v38.9h-38.9V328.4z M739.2,369.3h38.9v38.9h-38.9V369.3z M739.2,410.2h38.9v38.9h-38.9V410.2z
		 M739.2,451.2h38.9V490h-38.9V451.2z M739.2,492.1h38.9V531h-38.9V492.1z M739.2,533h38.9v38.9h-38.9V533z M739.2,573.9h38.9v38.9
		h-38.9V573.9z M739.2,614.8h38.9v38.9h-38.9V614.8z M739.2,655.7h38.9v38.5h-38.9V655.7z M739.2,696.2h38.9v38.9h-38.9V696.2z
		 M739.2,737.2h38.9V776h-38.9V737.2z M739.2,778.1h38.9V817h-38.9V778.1z M698.3-366.3h38.9v38.9h-38.9V-366.3z M698.3-325.4h38.9
		v38.9h-38.9V-325.4z M698.3-284.5h38.9v38.9h-38.9V-284.5z M698.3-243.6h38.9v38.9h-38.9V-243.6z M698.3-202.7h38.9v38.9h-38.9
		V-202.7z M698.3-161.8h38.9v38.5h-38.9V-161.8z M698.3-121.2h38.9v38.9h-38.9V-121.2z M698.3-80.3h38.9v38.9h-38.9V-80.3z
		 M698.3-39.4h38.9v38.9h-38.9V-39.4z M698.3,1.5h38.9v38.9h-38.9V1.5z M698.3,42.4h38.9v38.9h-38.9V42.4z M698.3,83.3h38.9v38.9
		h-38.9V83.3z M698.3,124.2h38.9v38.9h-38.9V124.2z M698.3,165.2h38.9V204h-38.9V165.2z M698.3,206.1h38.9V245h-38.9V206.1z
		 M698.3,247h38.9v38.5h-38.9V247z M698.3,287.5h38.9v38.9h-38.9V287.5z M698.3,328.4h38.9v38.9h-38.9V328.4z M698.3,369.3h38.9
		v38.9h-38.9V369.3z M698.3,410.2h38.9v38.9h-38.9V410.2z M698.3,451.2h38.9V490h-38.9V451.2z M698.3,492.1h38.9V531h-38.9V492.1z
		 M698.3,533h38.9v38.9h-38.9V533z M698.3,573.9h38.9v38.9h-38.9V573.9z M698.3,614.8h38.9v38.9h-38.9V614.8z M698.3,655.7h38.9
		v38.5h-38.9V655.7z M698.3,696.2h38.9v38.9h-38.9V696.2z M698.3,737.2h38.9V776h-38.9V737.2z M698.3,778.1h38.9V817h-38.9V778.1z
		 M657.4-366.3h38.9v38.9h-38.9V-366.3z M657.4-325.4h38.9v38.9h-38.9V-325.4z M657.4-284.5h38.9v38.9h-38.9V-284.5z M657.4-243.6
		h38.9v38.9h-38.9V-243.6z M657.4-202.7h38.9v38.9h-38.9V-202.7z M657.4-161.8h38.9v38.5h-38.9V-161.8z M657.4-121.2h38.9v38.9
		h-38.9V-121.2z M657.4-80.3h38.9v38.9h-38.9V-80.3z M657.4-39.4h38.9v38.9h-38.9V-39.4z M657.4,1.5h38.9v38.9h-38.9V1.5z
		 M657.4,42.4h38.9v38.9h-38.9V42.4z M657.4,83.3h38.9v38.9h-38.9V83.3z M657.4,124.2h38.9v38.9h-38.9V124.2z M657.4,165.2h38.9V204
		h-38.9V165.2z M657.4,206.1h38.9V245h-38.9V206.1z M657.4,247h38.9v38.5h-38.9V247z M657.4,287.5h38.9v38.9h-38.9V287.5z
		 M657.4,328.4h38.9v38.9h-38.9V328.4z M657.4,369.3h38.9v38.9h-38.9V369.3z M657.4,410.2h38.9v38.9h-38.9V410.2z M657.4,451.2h38.9
		V490h-38.9V451.2z M657.4,492.1h38.9V531h-38.9V492.1z M657.4,533h38.9v38.9h-38.9V533z M657.4,573.9h38.9v38.9h-38.9V573.9z
		 M657.4,614.8h38.9v38.9h-38.9V614.8z M657.4,655.7h38.9v38.5h-38.9V655.7z M657.4,696.2h38.9v38.9h-38.9V696.2z M657.4,737.2h38.9
		V776h-38.9V737.2z M657.4,778.1h38.9V817h-38.9V778.1z M616.5-366.3h38.9v38.9h-38.9V-366.3z M616.5-325.4h38.9v38.9h-38.9V-325.4z
		 M616.5-284.5h38.9v38.9h-38.9V-284.5z M616.5-243.6h38.9v38.9h-38.9V-243.6z M616.5-202.7h38.9v38.9h-38.9V-202.7z M616.5-161.8
		h38.9v38.5h-38.9V-161.8z M616.5-121.2h38.9v38.9h-38.9V-121.2z M616.5-80.3h38.9v38.9h-38.9V-80.3z M616.5-39.4h38.9v38.9h-38.9
		V-39.4z M616.5,1.5h38.9v38.9h-38.9V1.5z M616.5,42.4h38.9v38.9h-38.9V42.4z M616.5,83.3h38.9v38.9h-38.9V83.3z M616.5,124.2h38.9
		v38.9h-38.9V124.2z M616.5,165.2h38.9V204h-38.9V165.2z M616.5,206.1h38.9V245h-38.9V206.1z M616.5,247h38.9v38.5h-38.9V247z
		 M616.5,287.5h38.9v38.9h-38.9V287.5z M616.5,328.4h38.9v38.9h-38.9V328.4z M616.5,369.3h38.9v38.9h-38.9V369.3z M616.5,410.2h38.9
		v38.9h-38.9V410.2z M616.5,451.2h38.9V490h-38.9V451.2z M616.5,492.1h38.9V531h-38.9V492.1z M616.5,533h38.9v38.9h-38.9V533z
		 M616.5,573.9h38.9v38.9h-38.9V573.9z M616.5,614.8h38.9v38.9h-38.9V614.8z M616.5,655.7h38.9v38.5h-38.9V655.7z M616.5,696.2h38.9
		v38.9h-38.9V696.2z M616.5,737.2h38.9V776h-38.9V737.2z M616.5,778.1h38.9V817h-38.9V778.1z M576-366.3h38.5v38.9H576V-366.3z
		 M576-325.4h38.5v38.9H576V-325.4z M576-284.5h38.5v38.9H576V-284.5z M576-243.6h38.5v38.9H576V-243.6z M576-202.7h38.5v38.9H576
		V-202.7z M576-161.8h38.5v38.5H576V-161.8z M576-121.2h38.5v38.9H576V-121.2z M576-80.3h38.5v38.9H576V-80.3z M576-39.4h38.5v38.9
		H576V-39.4z M576,1.5h38.5v38.9H576V1.5z M576,42.4h38.5v38.9H576V42.4z M576,83.3h38.5v38.9H576V83.3z M576,124.2h38.5v38.9H576
		V124.2z M576,165.2h38.5V204H576V165.2z M576,206.1h38.5V245H576V206.1z M576,247h38.5v38.5H576V247z M576,287.5h38.5v38.9H576
		V287.5z M576,328.4h38.5v38.9H576V328.4z M576,369.3h38.5v38.9H576V369.3z M576,410.2h38.5v38.9H576V410.2z M576,451.2h38.5V490
		H576V451.2z M576,492.1h38.5V531H576V492.1z M576,533h38.5v38.9H576V533z M576,573.9h38.5v38.9H576V573.9z M576,614.8h38.5v38.9
		H576V614.8z M576,655.7h38.5v38.5H576V655.7z M576,696.2h38.5v38.9H576V696.2z M576,737.2h38.5V776H576V737.2z M576,778.1h38.5V817
		H576V778.1z M535-366.3h38.9v38.9H535V-366.3z M535-325.4h38.9v38.9H535V-325.4z M535-284.5h38.9v38.9H535V-284.5z M535-243.6h38.9
		v38.9H535V-243.6z M535-202.7h38.9v38.9H535V-202.7z M535-161.8h38.9v38.5H535V-161.8z M535-121.2h38.9v38.9H535V-121.2z M535-80.3
		h38.9v38.9H535V-80.3z M535-39.4h38.9v38.9H535V-39.4z M535,1.5h38.9v38.9H535V1.5z M535,42.4h38.9v38.9H535V42.4z M535,83.3h38.9
		v38.9H535V83.3z M535,124.2h38.9v38.9H535V124.2z M535,165.2h38.9V204H535V165.2z M535,206.1h38.9V245H535V206.1z M535,247h38.9
		v38.5H535V247z M535,287.5h38.9v38.9H535V287.5z M535,328.4h38.9v38.9H535V328.4z M535,369.3h38.9v38.9H535V369.3z M535,410.2h38.9
		v38.9H535V410.2z M535,451.2h38.9V490H535V451.2z M535,492.1h38.9V531H535V492.1z M535,533h38.9v38.9H535V533z M535,573.9h38.9
		v38.9H535V573.9z M535,614.8h38.9v38.9H535V614.8z M535,655.7h38.9v38.5H535V655.7z M535,696.2h38.9v38.9H535V696.2z M535,737.2
		h38.9V776H535V737.2z M535,778.1h38.9V817H535V778.1z M494.1-366.3H533v38.9h-38.9V-366.3z M494.1-325.4H533v38.9h-38.9V-325.4z
		 M494.1-284.5H533v38.9h-38.9V-284.5z M494.1-243.6H533v38.9h-38.9V-243.6z M494.1-202.7H533v38.9h-38.9V-202.7z M494.1-161.8H533
		v38.5h-38.9V-161.8z M494.1-121.2H533v38.9h-38.9V-121.2z M494.1-80.3H533v38.9h-38.9V-80.3z M494.1-39.4H533v38.9h-38.9V-39.4z
		 M494.1,1.5H533v38.9h-38.9V1.5z M494.1,42.4H533v38.9h-38.9V42.4z M494.1,83.3H533v38.9h-38.9V83.3z M494.1,124.2H533v38.9h-38.9
		V124.2z M494.1,165.2H533V204h-38.9V165.2z M494.1,206.1H533V245h-38.9V206.1z M494.1,247H533v38.5h-38.9V247z M494.1,287.5H533
		v38.9h-38.9V287.5z M494.1,328.4H533v38.9h-38.9V328.4z M494.1,369.3H533v38.9h-38.9V369.3z M494.1,410.2H533v38.9h-38.9V410.2z
		 M494.1,451.2H533V490h-38.9V451.2z M494.1,492.1H533V531h-38.9V492.1z M494.1,533H533v38.9h-38.9V533z M494.1,573.9H533v38.9
		h-38.9V573.9z M494.1,614.8H533v38.9h-38.9V614.8z M494.1,655.7H533v38.5h-38.9V655.7z M494.1,696.2H533v38.9h-38.9V696.2z
		 M494.1,737.2H533V776h-38.9V737.2z M494.1,778.1H533V817h-38.9V778.1z M453.2-366.3h38.9v38.9h-38.9V-366.3z M453.2-325.4h38.9
		v38.9h-38.9V-325.4z M453.2-284.5h38.9v38.9h-38.9V-284.5z M453.2-243.6h38.9v38.9h-38.9V-243.6z M453.2-202.7h38.9v38.9h-38.9
		V-202.7z M453.2-161.8h38.9v38.5h-38.9V-161.8z M453.2-121.2h38.9v38.9h-38.9V-121.2z M453.2-80.3h38.9v38.9h-38.9V-80.3z
		 M453.2-39.4h38.9v38.9h-38.9V-39.4z M453.2,1.5h38.9v38.9h-38.9V1.5z M453.2,42.4h38.9v38.9h-38.9V42.4z M453.2,83.3h38.9v38.9
		h-38.9V83.3z M453.2,124.2h38.9v38.9h-38.9V124.2z M453.2,165.2h38.9V204h-38.9V165.2z M453.2,206.1h38.9V245h-38.9V206.1z
		 M453.2,247h38.9v38.5h-38.9V247z M453.2,287.5h38.9v38.9h-38.9V287.5z M453.2,328.4h38.9v38.9h-38.9V328.4z M453.2,369.3h38.9
		v38.9h-38.9V369.3z M453.2,410.2h38.9v38.9h-38.9V410.2z M453.2,451.2h38.9V490h-38.9V451.2z M453.2,492.1h38.9V531h-38.9V492.1z
		 M453.2,533h38.9v38.9h-38.9V533z M453.2,573.9h38.9v38.9h-38.9V573.9z M453.2,614.8h38.9v38.9h-38.9V614.8z M453.2,655.7h38.9
		v38.5h-38.9V655.7z M453.2,696.2h38.9v38.9h-38.9V696.2z M453.2,737.2h38.9V776h-38.9V737.2z M453.2,778.1h38.9V817h-38.9V778.1z
		 M412.3-366.3h38.9v38.9h-38.9V-366.3z M412.3-325.4h38.9v38.9h-38.9V-325.4z M412.3-284.5h38.9v38.9h-38.9V-284.5z M412.3-243.6
		h38.9v38.9h-38.9V-243.6z M412.3-202.7h38.9v38.9h-38.9V-202.7z M412.3-161.8h38.9v38.5h-38.9V-161.8z M412.3-121.2h38.9v38.9
		h-38.9V-121.2z M412.3-80.3h38.9v38.9h-38.9V-80.3z M412.3-39.4h38.9v38.9h-38.9V-39.4z M412.3,1.5h38.9v38.9h-38.9V1.5z
		 M412.3,42.4h38.9v38.9h-38.9V42.4z M412.3,83.3h38.9v38.9h-38.9V83.3z M412.3,124.2h38.9v38.9h-38.9V124.2z M412.3,165.2h38.9V204
		h-38.9V165.2z M412.3,206.1h38.9V245h-38.9V206.1z M412.3,247h38.9v38.5h-38.9V247z M412.3,287.5h38.9v38.9h-38.9V287.5z
		 M412.3,328.4h38.9v38.9h-38.9V328.4z M412.3,369.3h38.9v38.9h-38.9V369.3z M412.3,410.2h38.9v38.9h-38.9V410.2z M412.3,451.2h38.9
		V490h-38.9V451.2z M412.3,492.1h38.9V531h-38.9V492.1z M412.3,533h38.9v38.9h-38.9V533z M412.3,573.9h38.9v38.9h-38.9V573.9z
		 M412.3,614.8h38.9v38.9h-38.9V614.8z M412.3,655.7h38.9v38.5h-38.9V655.7z M412.3,696.2h38.9v38.9h-38.9V696.2z M412.3,737.2h38.9
		V776h-38.9V737.2z M412.3,778.1h38.9V817h-38.9V778.1z M371.4-366.3h38.9v38.9h-38.9V-366.3z M371.4-325.4h38.9v38.9h-38.9V-325.4z
		 M371.4-284.5h38.9v38.9h-38.9V-284.5z M371.4-243.6h38.9v38.9h-38.9V-243.6z M371.4-202.7h38.9v38.9h-38.9V-202.7z M371.4-161.8
		h38.9v38.5h-38.9V-161.8z M371.4-121.2h38.9v38.9h-38.9V-121.2z M371.4-80.3h38.9v38.9h-38.9V-80.3z M371.4-39.4h38.9v38.9h-38.9
		V-39.4z M371.4,1.5h38.9v38.9h-38.9V1.5z M371.4,42.4h38.9v38.9h-38.9V42.4z M371.4,83.3h38.9v38.9h-38.9V83.3z M371.4,124.2h38.9
		v38.9h-38.9V124.2z M371.4,165.2h38.9V204h-38.9V165.2z M371.4,206.1h38.9V245h-38.9V206.1z M371.4,247h38.9v38.5h-38.9V247z
		 M371.4,287.5h38.9v38.9h-38.9V287.5z M371.4,328.4h38.9v38.9h-38.9V328.4z M371.4,369.3h38.9v38.9h-38.9V369.3z M371.4,410.2h38.9
		v38.9h-38.9V410.2z M371.4,451.2h38.9V490h-38.9V451.2z M371.4,492.1h38.9V531h-38.9V492.1z M371.4,533h38.9v38.9h-38.9V533z
		 M371.4,573.9h38.9v38.9h-38.9V573.9z M371.4,614.8h38.9v38.9h-38.9V614.8z M371.4,655.7h38.9v38.5h-38.9V655.7z M371.4,696.2h38.9
		v38.9h-38.9V696.2z M371.4,737.2h38.9V776h-38.9V737.2z M371.4,778.1h38.9V817h-38.9V778.1z M330.5-366.3h38.9v38.9h-38.9V-366.3z
		 M330.5-325.4h38.9v38.9h-38.9V-325.4z M330.5-284.5h38.9v38.9h-38.9V-284.5z M330.5-243.6h38.9v38.9h-38.9V-243.6z M330.5-202.7
		h38.9v38.9h-38.9V-202.7z M330.5-161.8h38.9v38.5h-38.9V-161.8z M330.5-121.2h38.9v38.9h-38.9V-121.2z M330.5-80.3h38.9v38.9h-38.9
		V-80.3z M330.5-39.4h38.9v38.9h-38.9V-39.4z M330.5,1.5h38.9v38.9h-38.9V1.5z M330.5,42.4h38.9v38.9h-38.9V42.4z M330.5,83.3h38.9
		v38.9h-38.9V83.3z M330.5,124.2h38.9v38.9h-38.9V124.2z M330.5,165.2h38.9V204h-38.9V165.2z M330.5,206.1h38.9V245h-38.9V206.1z
		 M330.5,247h38.9v38.5h-38.9V247z M330.5,287.5h38.9v38.9h-38.9V287.5z M330.5,328.4h38.9v38.9h-38.9V328.4z M330.5,369.3h38.9
		v38.9h-38.9V369.3z M330.5,410.2h38.9v38.9h-38.9V410.2z M330.5,451.2h38.9V490h-38.9V451.2z M330.5,492.1h38.9V531h-38.9V492.1z
		 M330.5,533h38.9v38.9h-38.9V533z M330.5,573.9h38.9v38.9h-38.9V573.9z M330.5,614.8h38.9v38.9h-38.9V614.8z M330.5,655.7h38.9
		v38.5h-38.9V655.7z M330.5,696.2h38.9v38.9h-38.9V696.2z M330.5,737.2h38.9V776h-38.9V737.2z M330.5,778.1h38.9V817h-38.9V778.1z
		 M289.5-366.3h38.9v38.9h-38.9V-366.3z M289.5-325.4h38.9v38.9h-38.9V-325.4z M289.5-284.5h38.9v38.9h-38.9V-284.5z M289.5-243.6
		h38.9v38.9h-38.9V-243.6z M289.5-202.7h38.9v38.9h-38.9V-202.7z M289.5-161.8h38.9v38.5h-38.9V-161.8z M289.5-121.2h38.9v38.9
		h-38.9V-121.2z M289.5-80.3h38.9v38.9h-38.9V-80.3z M289.5-39.4h38.9v38.9h-38.9V-39.4z M289.5,1.5h38.9v38.9h-38.9V1.5z
		 M289.5,42.4h38.9v38.9h-38.9V42.4z M289.5,83.3h38.9v38.9h-38.9V83.3z M289.5,124.2h38.9v38.9h-38.9V124.2z M289.5,165.2h38.9V204
		h-38.9V165.2z M289.5,206.1h38.9V245h-38.9V206.1z M289.5,247h38.9v38.5h-38.9V247z M289.5,287.5h38.9v38.9h-38.9V287.5z
		 M289.5,328.4h38.9v38.9h-38.9V328.4z M289.5,369.3h38.9v38.9h-38.9V369.3z M289.5,410.2h38.9v38.9h-38.9V410.2z M289.5,451.2h38.9
		V490h-38.9V451.2z M289.5,492.1h38.9V531h-38.9V492.1z M289.5,533h38.9v38.9h-38.9V533z M289.5,573.9h38.9v38.9h-38.9V573.9z
		 M289.5,614.8h38.9v38.9h-38.9V614.8z M289.5,655.7h38.9v38.5h-38.9V655.7z M289.5,696.2h38.9v38.9h-38.9V696.2z M289.5,737.2h38.9
		V776h-38.9V737.2z M289.5,778.1h38.9V817h-38.9V778.1z M248.6-366.3h38.9v38.9h-38.9V-366.3z M248.6-325.4h38.9v38.9h-38.9V-325.4z
		 M248.6-284.5h38.9v38.9h-38.9V-284.5z M248.6-243.6h38.9v38.9h-38.9V-243.6z M248.6-202.7h38.9v38.9h-38.9V-202.7z M248.6-161.8
		h38.9v38.5h-38.9V-161.8z M248.6-121.2h38.9v38.9h-38.9V-121.2z M248.6-80.3h38.9v38.9h-38.9V-80.3z M248.6-39.4h38.9v38.9h-38.9
		V-39.4z M248.6,1.5h38.9v38.9h-38.9V1.5z M248.6,42.4h38.9v38.9h-38.9V42.4z M248.6,83.3h38.9v38.9h-38.9V83.3z M248.6,124.2h38.9
		v38.9h-38.9V124.2z M248.6,165.2h38.9V204h-38.9V165.2z M248.6,206.1h38.9V245h-38.9V206.1z M248.6,247h38.9v38.5h-38.9V247z
		 M248.6,287.5h38.9v38.9h-38.9V287.5z M248.6,328.4h38.9v38.9h-38.9V328.4z M248.6,369.3h38.9v38.9h-38.9V369.3z M248.6,410.2h38.9
		v38.9h-38.9V410.2z M248.6,451.2h38.9V490h-38.9V451.2z M248.6,492.1h38.9V531h-38.9V492.1z M248.6,533h38.9v38.9h-38.9V533z
		 M248.6,573.9h38.9v38.9h-38.9V573.9z M248.6,614.8h38.9v38.9h-38.9V614.8z M248.6,655.7h38.9v38.5h-38.9V655.7z M248.6,696.2h38.9
		v38.9h-38.9V696.2z M248.6,737.2h38.9V776h-38.9V737.2z M248.6,778.1h38.9V817h-38.9V778.1z M207.7-366.3h38.9v38.9h-38.9
		L207.7-366.3L207.7-366.3z M207.7-325.4h38.9v38.9h-38.9L207.7-325.4L207.7-325.4z M207.7-284.5h38.9v38.9h-38.9L207.7-284.5
		L207.7-284.5z M207.7-243.6h38.9v38.9h-38.9L207.7-243.6L207.7-243.6z M207.7-202.7h38.9v38.9h-38.9L207.7-202.7L207.7-202.7z
		 M207.7-161.8h38.9v38.5h-38.9L207.7-161.8L207.7-161.8z M207.7-121.2h38.9v38.9h-38.9L207.7-121.2L207.7-121.2z M207.7-80.3h38.9
		v38.9h-38.9L207.7-80.3L207.7-80.3z M207.7-39.4h38.9v38.9h-38.9L207.7-39.4L207.7-39.4z M207.7,1.5h38.9v38.9h-38.9L207.7,1.5
		L207.7,1.5z M207.7,42.4h38.9v38.9h-38.9L207.7,42.4L207.7,42.4z M207.7,83.3h38.9v38.9h-38.9L207.7,83.3L207.7,83.3z M207.7,124.2
		h38.9v38.9h-38.9L207.7,124.2L207.7,124.2z M207.7,165.2h38.9V204h-38.9L207.7,165.2L207.7,165.2z M207.7,206.1h38.9V245h-38.9
		L207.7,206.1L207.7,206.1z M207.7,247h38.9v38.5h-38.9L207.7,247L207.7,247z M207.7,287.5h38.9v38.9h-38.9L207.7,287.5L207.7,287.5
		z M207.7,328.4h38.9v38.9h-38.9L207.7,328.4L207.7,328.4z M207.7,369.3h38.9v38.9h-38.9L207.7,369.3L207.7,369.3z M207.7,410.2
		h38.9v38.9h-38.9L207.7,410.2L207.7,410.2z M207.7,451.2h38.9V490h-38.9L207.7,451.2L207.7,451.2z M207.7,492.1h38.9V531h-38.9
		L207.7,492.1L207.7,492.1z M207.7,533h38.9v38.9h-38.9L207.7,533L207.7,533z M207.7,573.9h38.9v38.9h-38.9L207.7,573.9L207.7,573.9
		z M207.7,614.8h38.9v38.9h-38.9L207.7,614.8L207.7,614.8z M207.7,655.7h38.9v38.5h-38.9L207.7,655.7L207.7,655.7z M207.7,696.2
		h38.9v38.9h-38.9L207.7,696.2L207.7,696.2z M207.7,737.2h38.9V776h-38.9L207.7,737.2L207.7,737.2z M207.7,778.1h38.9V817h-38.9
		L207.7,778.1L207.7,778.1z M167.2-366.3h38.5v38.9h-38.5V-366.3z M167.2-325.4h38.5v38.9h-38.5V-325.4z M167.2-284.5h38.5v38.9
		h-38.5V-284.5z M167.2-243.6h38.5v38.9h-38.5V-243.6z M167.2-202.7h38.5v38.9h-38.5V-202.7z M167.2-161.8h38.5v38.5h-38.5V-161.8z
		 M167.2-121.2h38.5v38.9h-38.5V-121.2z M167.2-80.3h38.5v38.9h-38.5V-80.3z M167.2-39.4h38.5v38.9h-38.5V-39.4z M167.2,1.5h38.5
		v38.9h-38.5V1.5z M167.2,42.4h38.5v38.9h-38.5V42.4z M167.2,83.3h38.5v38.9h-38.5V83.3z M167.2,124.2h38.5v38.9h-38.5V124.2z
		 M167.2,165.2h38.5V204h-38.5V165.2z M167.2,206.1h38.5V245h-38.5V206.1z M167.2,247h38.5v38.5h-38.5V247z M167.2,287.5h38.5v38.9
		h-38.5V287.5z M167.2,328.4h38.5v38.9h-38.5V328.4z M167.2,369.3h38.5v38.9h-38.5V369.3z M167.2,410.2h38.5v38.9h-38.5V410.2z
		 M167.2,451.2h38.5V490h-38.5V451.2z M167.2,492.1h38.5V531h-38.5V492.1z M167.2,533h38.5v38.9h-38.5V533z M167.2,573.9h38.5v38.9
		h-38.5V573.9z M167.2,614.8h38.5v38.9h-38.5V614.8z M167.2,655.7h38.5v38.5h-38.5V655.7z M167.2,696.2h38.5v38.9h-38.5V696.2z
		 M167.2,737.2h38.5V776h-38.5V737.2z M167.2,778.1h38.5V817h-38.5V778.1z M126.3-366.3h38.9v38.9h-38.9
		C126.3-327.5,126.3-366.3,126.3-366.3z M126.3-325.4h38.9v38.9h-38.9C126.3-286.5,126.3-325.4,126.3-325.4z M126.3-284.5h38.9v38.9
		h-38.9C126.3-245.6,126.3-284.5,126.3-284.5z M126.3-243.6h38.9v38.9h-38.9C126.3-204.7,126.3-243.6,126.3-243.6z M126.3-202.7
		h38.9v38.9h-38.9C126.3-163.8,126.3-202.7,126.3-202.7z M126.3-161.8h38.9v38.5h-38.9C126.3-123.3,126.3-161.8,126.3-161.8z
		 M126.3-121.2h38.9v38.9h-38.9C126.3-82.4,126.3-121.2,126.3-121.2z M126.3-80.3h38.9v38.9h-38.9C126.3-41.5,126.3-80.3,126.3-80.3
		z M126.3-39.4h38.9v38.9h-38.9C126.3-0.6,126.3-39.4,126.3-39.4z M126.3,1.5h38.9v38.9h-38.9C126.3,40.4,126.3,1.5,126.3,1.5z
		 M126.3,42.4h38.9v38.9h-38.9C126.3,81.3,126.3,42.4,126.3,42.4z M126.3,83.3h38.9v38.9h-38.9C126.3,122.2,126.3,83.3,126.3,83.3z
		 M126.3,124.2h38.9v38.9h-38.9C126.3,163.1,126.3,124.2,126.3,124.2z M126.3,165.2h38.9V204h-38.9
		C126.3,204,126.3,165.2,126.3,165.2z M126.3,206.1h38.9V245h-38.9C126.3,244.9,126.3,206.1,126.3,206.1z M126.3,247h38.9v38.5
		h-38.9C126.3,285.4,126.3,247,126.3,247z M126.3,287.5h38.9v38.9h-38.9C126.3,326.4,126.3,287.5,126.3,287.5z M126.3,328.4h38.9
		v38.9h-38.9C126.3,367.3,126.3,328.4,126.3,328.4z M126.3,369.3h38.9v38.9h-38.9C126.3,408.2,126.3,369.3,126.3,369.3z
		 M126.3,410.2h38.9v38.9h-38.9C126.3,449.1,126.3,410.2,126.3,410.2z M126.3,451.2h38.9V490h-38.9
		C126.3,490,126.3,451.2,126.3,451.2z M126.3,492.1h38.9V531h-38.9C126.3,530.9,126.3,492.1,126.3,492.1z M126.3,533h38.9v38.9
		h-38.9C126.3,571.9,126.3,533,126.3,533z M126.3,573.9h38.9v38.9h-38.9C126.3,612.8,126.3,573.9,126.3,573.9z M126.3,614.8h38.9
		v38.9h-38.9C126.3,653.7,126.3,614.8,126.3,614.8z M126.3,655.7h38.9v38.5h-38.9C126.3,694.2,126.3,655.7,126.3,655.7z
		 M126.3,696.2h38.9v38.9h-38.9C126.3,735.1,126.3,696.2,126.3,696.2z M126.3,737.2h38.9V776h-38.9
		C126.3,776,126.3,737.2,126.3,737.2z M126.3,778.1h38.9V817h-38.9C126.3,816.9,126.3,778.1,126.3,778.1z M85.4-366.3h38.9v38.9
		H85.4V-366.3z M85.4-325.4h38.9v38.9H85.4V-325.4z M85.4-284.5h38.9v38.9H85.4V-284.5z M85.4-243.6h38.9v38.9H85.4V-243.6z
		 M85.4-202.7h38.9v38.9H85.4V-202.7z M85.4-161.8h38.9v38.5H85.4V-161.8z M85.4-121.2h38.9v38.9H85.4V-121.2z M85.4-80.3h38.9v38.9
		H85.4V-80.3z M85.4-39.4h38.9v38.9H85.4V-39.4z M85.4,1.5h38.9v38.9H85.4V1.5z M85.4,42.4h38.9v38.9H85.4V42.4z M85.4,83.3h38.9
		v38.9H85.4V83.3z M85.4,124.2h38.9v38.9H85.4V124.2z M85.4,165.2h38.9V204H85.4V165.2z M85.4,206.1h38.9V245H85.4V206.1z M85.4,247
		h38.9v38.5H85.4V247z M85.4,287.5h38.9v38.9H85.4V287.5z M85.4,328.4h38.9v38.9H85.4V328.4z M85.4,369.3h38.9v38.9H85.4V369.3z
		 M85.4,410.2h38.9v38.9H85.4V410.2z M85.4,451.2h38.9V490H85.4V451.2z M85.4,492.1h38.9V531H85.4V492.1z M85.4,533h38.9v38.9H85.4
		V533z M85.4,573.9h38.9v38.9H85.4V573.9z M85.4,614.8h38.9v38.9H85.4V614.8z M85.4,655.7h38.9v38.5H85.4V655.7z M85.4,696.2h38.9
		v38.9H85.4V696.2z M85.4,737.2h38.9V776H85.4V737.2z M85.4,778.1h38.9V817H85.4V778.1z M44.4-366.3h38.9v38.9H44.4V-366.3z
		 M44.4-325.4h38.9v38.9H44.4V-325.4z M44.4-284.5h38.9v38.9H44.4V-284.5z M44.4-243.6h38.9v38.9H44.4V-243.6z M44.4-202.7h38.9
		v38.9H44.4V-202.7z M44.4-161.8h38.9v38.5H44.4V-161.8z M44.4-121.2h38.9v38.9H44.4V-121.2z M44.4-80.3h38.9v38.9H44.4V-80.3z
		 M44.4-39.4h38.9v38.9H44.4V-39.4z M44.4,1.5h38.9v38.9H44.4V1.5z M44.4,42.4h38.9v38.9H44.4V42.4z M44.4,83.3h38.9v38.9H44.4V83.3
		z M44.4,124.2h38.9v38.9H44.4V124.2z M44.4,165.2h38.9V204H44.4V165.2z M44.4,206.1h38.9V245H44.4V206.1z M44.4,247h38.9v38.5H44.4
		V247z M44.4,287.5h38.9v38.9H44.4V287.5z M44.4,328.4h38.9v38.9H44.4V328.4z M44.4,369.3h38.9v38.9H44.4V369.3z M44.4,410.2h38.9
		v38.9H44.4V410.2z M44.4,451.2h38.9V490H44.4V451.2z M44.4,492.1h38.9V531H44.4V492.1z M44.4,533h38.9v38.9H44.4V533z M44.4,573.9
		h38.9v38.9H44.4V573.9z M44.4,614.8h38.9v38.9H44.4V614.8z M44.4,655.7h38.9v38.5H44.4V655.7z M44.4,696.2h38.9v38.9H44.4V696.2z
		 M44.4,737.2h38.9V776H44.4V737.2z M44.4,778.1h38.9V817H44.4V778.1z M3.5-366.3h38.9v38.9H3.5V-366.3z M3.5-325.4h38.9v38.9H3.5
		V-325.4z M3.5-284.5h38.9v38.9H3.5V-284.5z M3.5-243.6h38.9v38.9H3.5V-243.6z M3.5-202.7h38.9v38.9H3.5V-202.7z M3.5-161.8h38.9
		v38.5H3.5V-161.8z M3.5-121.2h38.9v38.9H3.5V-121.2z M3.5-80.3h38.9v38.9H3.5V-80.3z M3.5-39.4h38.9v38.9H3.5V-39.4z M3.5,1.5h38.9
		v38.9H3.5V1.5z M3.5,42.4h38.9v38.9H3.5V42.4z M3.5,83.3h38.9v38.9H3.5V83.3z M3.5,124.2h38.9v38.9H3.5V124.2z M3.5,165.2h38.9V204
		H3.5V165.2z M3.5,206.1h38.9V245H3.5V206.1z M3.5,247h38.9v38.5H3.5V247z M3.5,287.5h38.9v38.9H3.5V287.5z M3.5,328.4h38.9v38.9
		H3.5V328.4z M3.5,369.3h38.9v38.9H3.5V369.3z M3.5,410.2h38.9v38.9H3.5V410.2z M3.5,451.2h38.9V490H3.5V451.2z M3.5,492.1h38.9V531
		H3.5V492.1z M3.5,533h38.9v38.9H3.5V533z M3.5,573.9h38.9v38.9H3.5V573.9z M3.5,614.8h38.9v38.9H3.5V614.8z M3.5,655.7h38.9v38.5
		H3.5V655.7z M3.5,696.2h38.9v38.9H3.5V696.2z M3.5,737.2h38.9V776H3.5V737.2z M3.5,778.1h38.9V817H3.5V778.1z"/>
</g>
<path class="st3" d="M1172.4,291c0,17.7-0.2,35-0.2,52.7c0,14.2,0.2,28.6,0.2,42.6c0,12.8,0.9,26.3,9,36.1
	c6.5,7.9,16.5,12.2,26.1,14.8c9.1,2.5,20.4,2.8,29.8,2.8H2823"/>
<path class="st4" d="M386,161.4c0-17.7,0-35.4,0-53.1c0-14.2-0.2-28.9-0.2-42.9c0-12.8-0.8-26.4-7.5-36.2
	c-5.4-7.9-12.4-10.9-20.4-13.5c-7.4-2.5-18.1-2.3-25.8-2.3H-978.5"/>
<path class="st5" d="M1167.8,294.9c-0.6,17.7-0.3,35.4-0.1,53.1c0.2,14.2-0.4,28.3,0.1,42.5c0.5,12.2,1.6,25,9.7,34.8
	c6.5,7.9,18.4,13.7,28,16.3c9.1,2.5,19,3.2,28.4,3.2h1585.8"/>
<path class="st6" d="M390.9,162c0.5-17.8,0.4-35.8,0.2-53.5c-0.1-14.1,0.5-28.4,0-42.6c-0.4-12.2-1.3-25.1-8-34.9
	c-5.4-7.8-15.2-13.1-23.2-15.7c-7.5-2.4-15.7-2.6-23.4-2.6H-975.1"/>
<radialGradient id="SVGID_3_" cx="754.5067" cy="1641.635" r="127.2" gradientTransform="matrix(1 0 0 1 -381 -1411.5176)" gradientUnits="userSpaceOnUse">
	<stop  offset="0" style="stop-color:#15ADFF"/>
	<stop  offset="1" style="stop-color:#003A7F"/>
</radialGradient>
<radialGradient id="SVGID_4_" cx="373.5067" cy="230.1174" r="127.7" gradientUnits="userSpaceOnUse">
	<stop  offset="0" style="stop-color:#2A7DD3"/>
	<stop  offset="1" style="stop-color:#00FF50"/>
</radialGradient>
<circle class="st7" cx="373.5" cy="230.1" r="127.2"/>
<radialGradient id="SVGID_5_" cx="1025.4066" cy="1641.635" r="127.2" gradientTransform="matrix(1 0 0 1 -381 -1411.5176)" gradientUnits="userSpaceOnUse">
	<stop  offset="0" style="stop-color:#15ADFF"/>
	<stop  offset="1" style="stop-color:#003A7F"/>
</radialGradient>
<radialGradient id="SVGID_6_" cx="644.4066" cy="230.1174" r="127.7" gradientUnits="userSpaceOnUse">
	<stop  offset="0" style="stop-color:#2A7DD3"/>
	<stop  offset="1" style="stop-color:#00FF50"/>
</radialGradient>
<circle class="st8" cx="644.4" cy="230.1" r="127.2"/>
<radialGradient id="SVGID_7_" cx="910.6068" cy="231.0674" r="127.2" gradientUnits="userSpaceOnUse">
	<stop  offset="0" style="stop-color:#15ADFF"/>
	<stop  offset="1" style="stop-color:#003A7F"/>
</radialGradient>
<radialGradient id="SVGID_8_" cx="910.6068" cy="231.0674" r="127.7" gradientUnits="userSpaceOnUse">
	<stop  offset="0" style="stop-color:#2A7DD3"/>
	<stop  offset="1" style="stop-color:#00FF50"/>
</radialGradient>
<circle class="st9" cx="910.6" cy="231.1" r="127.2"/>
<radialGradient id="SVGID_9_" cx="1557.0066" cy="1641.635" r="127.2" gradientTransform="matrix(1 0 0 1 -381 -1411.5176)" gradientUnits="userSpaceOnUse">
	<stop  offset="0" style="stop-color:#15ADFF"/>
	<stop  offset="1" style="stop-color:#003A7F"/>
</radialGradient>
<radialGradient id="SVGID_10_" cx="1176.0066" cy="230.1174" r="127.7" gradientUnits="userSpaceOnUse">
	<stop  offset="0" style="stop-color:#2A7DD3"/>
	<stop  offset="1" style="stop-color:#00FF50"/>
</radialGradient>
<circle class="st10" cx="1176" cy="230.1" r="127.2"/>
<circle class="st11" cx="380.7" cy="230.8" r="131.8"/>
<circle class="st12" cx="380.7" cy="230.8" r="122.2"/>
<circle class="st12" cx="644.8" cy="230.8" r="122.2"/>
<ellipse class="st12" cx="910.6" cy="230.8" rx="122.2" ry="122.2"/>
<ellipse transform="matrix(0.7071 -0.7071 0.7071 0.7071 180.851 898.2479)" class="st12" cx="1174.7" cy="230.8" rx="122.2" ry="122.2"/>
<circle class="st11" cx="644.8" cy="230.8" r="131.8"/>
<ellipse class="st13" cx="910.6" cy="230.8" rx="131.8" ry="131.8"/>
<ellipse transform="matrix(0.7071 -0.7071 0.7071 0.7071 181.3197 899.3793)" class="st11" cx="1176.3" cy="230.8" rx="131.8" ry="131.8"/>
<g id="Layer_3_1_">
</g>
<g>
	<g>
		<path class="st14" d="M377.5,292H314c-6.1,0-11.1-5-11.1-11.1v-11.1h85.3L377.5,292z"/>
		<path class="st15" d="M447.3,203.1v46.7v31.1H314c-6.1,0-11.1-5-11.1-11.1v-66.7l77.8-27.8L447.3,203.1z"/>
		<g>
			<path class="st16" d="M322.5,225.3h-5.9c-1.4,0-2.6-1.2-2.6-2.6v-5.9c0-1.4,1.2-2.6,2.6-2.6h5.9c1.4,0,2.6,1.2,2.6,2.6v5.9
				C325.1,224.2,323.9,225.3,322.5,225.3z"/>
			<path class="st16" d="M344.7,225.3h-5.9c-1.4,0-2.6-1.2-2.6-2.6v-5.9c0-1.4,1.2-2.6,2.6-2.6h5.9c1.4,0,2.6,1.2,2.6,2.6v5.9
				C347.3,224.2,346.1,225.3,344.7,225.3z"/>
			<path class="st16" d="M366.9,225.3H361c-1.4,0-2.6-1.2-2.6-2.6v-5.9c0-1.4,1.2-2.6,2.6-2.6h5.9c1.4,0,2.6,1.2,2.6,2.6v5.9
				C369.5,224.2,368.4,225.3,366.9,225.3z"/>
			<path class="st16" d="M389.2,225.3h-5.9c-1.4,0-2.6-1.2-2.6-2.6v-5.9c0-1.4,1.2-2.6,2.6-2.6h5.9c1.4,0,2.6,1.2,2.6,2.6v5.9
				C391.8,224.2,390.6,225.3,389.2,225.3z"/>
			<path class="st16" d="M411.4,225.3h-5.9c-1.4,0-2.6-1.2-2.6-2.6v-5.9c0-1.4,1.2-2.6,2.6-2.6h5.9c1.4,0,2.6,1.2,2.6,2.6v5.9
				C414,224.2,412.8,225.3,411.4,225.3z"/>
			<path class="st16" d="M433.6,225.3h-5.9c-1.4,0-2.6-1.2-2.6-2.6v-5.9c0-1.4,1.2-2.6,2.6-2.6h5.9c1.4,0,2.6,1.2,2.6,2.6v5.9
				C436.2,224.2,435.1,225.3,433.6,225.3z"/>
			<path class="st16" d="M322.5,247.6h-5.9c-1.4,0-2.6-1.2-2.6-2.6V239c0-1.4,1.2-2.6,2.6-2.6h5.9c1.4,0,2.6,1.2,2.6,2.6v5.9
				C325.1,246.4,323.9,247.6,322.5,247.6z"/>
			<path class="st16" d="M344.7,247.6h-5.9c-1.4,0-2.6-1.2-2.6-2.6V239c0-1.4,1.2-2.6,2.6-2.6h5.9c1.4,0,2.6,1.2,2.6,2.6v5.9
				C347.3,246.4,346.1,247.6,344.7,247.6z"/>
			<path class="st16" d="M366.9,247.6H361c-1.4,0-2.6-1.2-2.6-2.6V239c0-1.4,1.2-2.6,2.6-2.6h5.9c1.4,0,2.6,1.2,2.6,2.6v5.9
				C369.5,246.4,368.4,247.6,366.9,247.6z"/>
			<path class="st16" d="M391.8,247.6v-8.3c0-1.5-1.2-2.8-2.8-2.8h-5.6c-1.5,0-2.8,1.2-2.8,2.8v5.6c0,1.5,1.2,2.8,2.8,2.8H391.8z"/>
			<path class="st16" d="M322.5,269.8h-5.9c-1.4,0-2.6-1.2-2.6-2.6v-5.9c0-1.4,1.2-2.6,2.6-2.6h5.9c1.4,0,2.6,1.2,2.6,2.6v5.9
				C325.1,268.6,323.9,269.8,322.5,269.8z"/>
			<path class="st16" d="M344.7,269.8h-5.9c-1.4,0-2.6-1.2-2.6-2.6v-5.9c0-1.4,1.2-2.6,2.6-2.6h5.9c1.4,0,2.6,1.2,2.6,2.6v5.9
				C347.3,268.6,346.1,269.8,344.7,269.8z"/>
			<path class="st16" d="M366.9,269.8H361c-1.4,0-2.6-1.2-2.6-2.6v-5.9c0-1.4,1.2-2.6,2.6-2.6h5.9c1.4,0,2.6,1.2,2.6,2.6v5.9
				C369.5,268.6,368.4,269.8,366.9,269.8z"/>
		</g>
		<path class="st17" d="M433.5,214.2h-5.7c-0.3,0-0.7,0.1-1,0.2c1,0.4,1.7,1.4,1.7,2.5v5.7c0,1.1-0.7,2.1-1.7,2.5
			c0.3,0.1,0.6,0.2,1,0.2h5.7c1.5,0,2.7-1.2,2.7-2.7v-5.7C436.2,215.4,435,214.2,433.5,214.2z"/>
		<path class="st17" d="M411.3,214.2h-5.7c-0.3,0-0.7,0.1-1,0.2c1,0.4,1.7,1.4,1.7,2.5v5.7c0,1.1-0.7,2.1-1.7,2.5
			c0.3,0.1,0.6,0.2,1,0.2h5.7c1.5,0,2.7-1.2,2.7-2.7v-5.7C414,215.4,412.8,214.2,411.3,214.2z"/>
		<path class="st17" d="M389.1,214.2h-5.7c-0.3,0-0.7,0.1-1,0.2c1,0.4,1.7,1.4,1.7,2.5v5.7c0,1.1-0.7,2.1-1.7,2.5
			c0.3,0.1,0.6,0.2,1,0.2h5.7c1.5,0,2.7-1.2,2.7-2.7v-5.7C391.8,215.4,390.6,214.2,389.1,214.2z"/>
		<path class="st17" d="M366.9,214.2h-5.7c-0.3,0-0.7,0.1-1,0.2c1,0.4,1.7,1.4,1.7,2.5v5.7c0,1.1-0.7,2.1-1.7,2.5
			c0.3,0.1,0.6,0.2,1,0.2h5.7c1.5,0,2.7-1.2,2.7-2.7v-5.7C369.5,215.4,368.3,214.2,366.9,214.2z"/>
		<path class="st17" d="M344.6,214.2h-5.7c-0.3,0-0.7,0.1-1,0.2c1,0.4,1.7,1.4,1.7,2.5v5.7c0,1.1-0.7,2.1-1.7,2.5
			c0.3,0.1,0.6,0.2,1,0.2h5.7c1.5,0,2.7-1.2,2.7-2.7v-5.7C347.3,215.4,346.1,214.2,344.6,214.2z"/>
		<path class="st17" d="M322.4,214.2h-5.7c-0.3,0-0.7,0.1-1,0.2c1,0.4,1.7,1.4,1.7,2.5v5.7c0,1.1-0.7,2.1-1.7,2.5
			c0.3,0.1,0.6,0.2,1,0.2h5.7c1.5,0,2.7-1.2,2.7-2.7v-5.7C325.1,215.4,323.9,214.2,322.4,214.2z"/>
		<path class="st17" d="M322.4,236.4h-5.7c-0.3,0-0.7,0.1-1,0.2c1,0.4,1.7,1.4,1.7,2.5v5.7c0,1.1-0.7,2.1-1.7,2.5
			c0.3,0.1,0.6,0.2,1,0.2h5.7c1.5,0,2.7-1.2,2.7-2.7v-5.7C325.1,237.6,323.9,236.4,322.4,236.4L322.4,236.4z"/>
		<path class="st17" d="M322.4,258.7h-5.7c-0.3,0-0.7,0.1-1,0.2c1,0.4,1.7,1.4,1.7,2.5v5.7c0,1.1-0.7,2.1-1.7,2.5
			c0.3,0.1,0.6,0.2,1,0.2h5.7c1.5,0,2.7-1.2,2.7-2.7v-5.7C325.1,259.9,323.9,258.7,322.4,258.7L322.4,258.7z"/>
		<path class="st17" d="M344.6,236.4h-5.7c-0.3,0-0.7,0.1-1,0.2c1,0.4,1.7,1.4,1.7,2.5v5.7c0,1.1-0.7,2.1-1.7,2.5
			c0.3,0.1,0.6,0.2,1,0.2h5.7c1.5,0,2.7-1.2,2.7-2.7v-5.7C347.3,237.6,346.1,236.4,344.6,236.4L344.6,236.4z"/>
		<path class="st17" d="M344.6,258.7h-5.7c-0.3,0-0.7,0.1-1,0.2c1,0.4,1.7,1.4,1.7,2.5v5.7c0,1.1-0.7,2.1-1.7,2.5
			c0.3,0.1,0.6,0.2,1,0.2h5.7c1.5,0,2.7-1.2,2.7-2.7v-5.7C347.3,259.9,346.1,258.7,344.6,258.7L344.6,258.7z"/>
		<path class="st17" d="M366.9,236.4h-5.7c-0.3,0-0.7,0.1-1,0.2c1,0.4,1.7,1.4,1.7,2.5v5.7c0,1.1-0.7,2.1-1.7,2.5
			c0.3,0.1,0.6,0.2,1,0.2h5.7c1.5,0,2.7-1.2,2.7-2.7v-5.7C369.5,237.6,368.3,236.4,366.9,236.4L366.9,236.4z"/>
		<path class="st17" d="M391.8,247.6v-8.4c0-1.5-1.2-2.7-2.7-2.7h-5.7c-0.3,0-0.7,0.1-1,0.2c1,0.4,1.7,1.4,1.7,2.5v5.7
			c0,1.1-0.7,2.1-1.7,2.5c0.3,0.1,0.6,0.2,1,0.2L391.8,247.6L391.8,247.6z"/>
		<path class="st17" d="M366.9,258.7h-5.7c-0.3,0-0.7,0.1-1,0.2c1,0.4,1.7,1.4,1.7,2.5v5.7c0,1.1-0.7,2.1-1.7,2.5
			c0.3,0.1,0.6,0.2,1,0.2h5.7c1.5,0,2.7-1.2,2.7-2.7v-5.7C369.5,259.9,368.3,258.7,366.9,258.7L366.9,258.7z"/>
		<path class="st14" d="M439.6,199.9v49.9v31.1h7.7v-31.1v-46.7L439.6,199.9z"/>
		<path class="st18" d="M447.3,203.1v-27.8c0-6.1-5-11.1-11.1-11.1H314c-6.1,0-11.1,5-11.1,11.1v27.8H447.3z"/>
		<g>
			<g>
				<g>
					<path class="st19" d="M337.9,177.8h-7.2c-1.4,0-2.5-1.1-2.5-2.5s1.1-2.5,2.5-2.5h7.2c1.4,0,2.5,1.1,2.5,2.5
						S339.3,177.8,337.9,177.8z"/>
				</g>
				<g>
					<path class="st19" d="M355.6,177.8h-7.2c-1.4,0-2.5-1.1-2.5-2.5s1.1-2.5,2.5-2.5h7.2c1.4,0,2.5,1.1,2.5,2.5
						S357,177.8,355.6,177.8z"/>
				</g>
				<g>
					<path class="st19" d="M401.8,177.8h-7.2c-1.4,0-2.5-1.1-2.5-2.5s1.1-2.5,2.5-2.5h7.2c1.4,0,2.5,1.1,2.5,2.5
						S403.2,177.8,401.8,177.8z"/>
				</g>
				<g>
					<path class="st19" d="M419.6,177.8h-7.2c-1.4,0-2.5-1.1-2.5-2.5s1.1-2.5,2.5-2.5h7.2c1.4,0,2.5,1.1,2.5,2.5
						S420.9,177.8,419.6,177.8z"/>
				</g>
			</g>
		</g>
		<path class="st15" d="M350.1,173.9c0,3.8-3.1,6.9-6.9,6.9c-3.8,0-6.9-3.1-6.9-6.9V160c0-3.8,3.1-6.9,6.9-6.9
			c3.8,0,6.9,3.1,6.9,6.9L350.1,173.9L350.1,173.9z"/>
		<path class="st15" d="M414,173.9c0,3.8-3.1,6.9-6.9,6.9s-6.9-3.1-6.9-6.9V160c0-3.8,3.1-6.9,6.9-6.9c3.8,0,6.9,3.1,6.9,6.9
			L414,173.9L414,173.9z"/>
		<path class="st14" d="M407.1,153.1c-1.4,0-2.8,0.4-3.9,1.2c1.9,1.2,3.1,3.4,3.1,5.8v13.9c0,2.4-1.2,4.5-3.1,5.8
			c1.1,0.7,2.4,1.2,3.9,1.2c3.8,0,6.9-3.1,6.9-6.9V160C414,156.2,410.9,153.1,407.1,153.1z"/>
		<path class="st14" d="M343.1,153.1c-1.4,0-2.8,0.4-3.9,1.2c1.9,1.2,3.1,3.4,3.1,5.8v13.9c0,2.4-1.2,4.5-3.1,5.8
			c1.1,0.7,2.4,1.2,3.9,1.2c3.8,0,6.9-3.1,6.9-6.9V160C350.1,156.2,347,153.1,343.1,153.1L343.1,153.1z"/>
		<path class="st19" d="M436.2,164.2h-7.7c6.1,0,11.1,5,11.1,11.1v27.8h7.7v-27.8C447.3,169.2,442.4,164.2,436.2,164.2L436.2,164.2z
			"/>
		<path class="st19" d="M302.8,189.5h144.5v5H302.8V189.5z"/>
	</g>
	<circle class="st20" cx="416.8" cy="278.1" r="41.7"/>
	<circle class="st15" cx="416.8" cy="278.1" r="30.6"/>
	<g>
		<g>
			<path class="st16" d="M416.8,275.1c-1.4,0-2.5-1.1-2.5-2.5v-13.9c0-1.4,1.1-2.5,2.5-2.5c1.4,0,2.5,1.1,2.5,2.5v13.9
				C419.3,273.9,418.2,275.1,416.8,275.1z"/>
		</g>
	</g>
	<g>
		<g>
			<path class="st16" d="M430.7,280.6h-8.3c-1.4,0-2.5-1.1-2.5-2.5s1.1-2.5,2.5-2.5h8.3c1.4,0,2.5,1.1,2.5,2.5
				S432.1,280.6,430.7,280.6z"/>
		</g>
	</g>
	<path class="st21" d="M416.8,236.4c-1.3,0-2.6,0.1-3.9,0.2c21.2,1.9,37.8,19.8,37.8,41.5s-16.6,39.6-37.8,41.5
		c1.3,0.1,2.6,0.2,3.9,0.2c23,0,41.7-18.7,41.7-41.7S439.8,236.4,416.8,236.4z"/>
	<path class="st14" d="M416.8,247.6c-1.3,0-2.6,0.1-3.9,0.2c15.1,1.9,26.7,14.7,26.7,30.3s-11.6,28.4-26.7,30.3
		c1.3,0.2,2.5,0.2,3.9,0.2c16.9,0,30.6-13.7,30.6-30.6S433.7,247.6,416.8,247.6L416.8,247.6z"/>
	<circle class="st22" cx="416.8" cy="278.1" r="5.6"/>
</g>
<g>
	<g>
		<g>
			<path class="st22" d="M977.5,178.1c5.6,0,10.2,4.6,10.2,10.2v101.9c0,5.6-4.6,10.2-10.2,10.2H845.1c-5.6,0-10.2-4.6-10.2-10.2
				V188.2c0-5.6,4.6-10.2,10.2-10.2H977.5z"/>
			<path class="st15" d="M964.8,188.2c1.2,0,2.2,0.8,2.5,2c0.9,4,4.2,7.4,8.3,8.3c1.2,0.2,2,1.3,2,2.5v76.3c0,1.2-0.8,2.2-2,2.5
				c-4.1,0.9-7.4,4.3-8.3,8.3c-0.2,1.2-1.3,2-2.5,2H857.9c-1.2,0-2.2-0.8-2.5-2c-0.9-4-4.2-7.4-8.3-8.3c-1.2-0.2-2-1.3-2-2.5V201
				c0-1.2,0.8-2.2,2-2.5c4.1-0.9,7.4-4.3,8.3-8.3c0.2-1.2,1.3-2,2.5-2H964.8z"/>
			<path class="st23" d="M977.5,178.1h-7.1c5.6,0,10.2,4.6,10.2,10.2v101.9c0,5.6-4.6,10.2-10.2,10.2h7.1c5.6,0,10.2-4.6,10.2-10.2
				V188.2C987.7,182.6,983.2,178.1,977.5,178.1z"/>
			<path class="st14" d="M975.5,198.5c-4.1-0.9-7.4-4.3-8.3-8.3c-0.2-1.2-1.3-2-2.5-2h-7.1c1.2,0,2.2,0.8,2.5,2
				c0.9,4,4.2,7.4,8.3,8.3c1.2,0.2,2,1.3,2,2.5v76.3c0,1.2-0.8,2.2-2,2.5c-4.1,0.9-7.4,4.3-8.3,8.3c-0.2,1.2-1.3,2-2.5,2h7.1
				c1.2,0,2.2-0.8,2.5-2c0.9-4,4.2-7.4,8.3-8.3c1.2-0.2,2-1.3,2-2.5V201C977.5,199.8,976.7,198.8,975.5,198.5z"/>
		</g>
		<g>
			<path class="st20" d="M978.2,190.6h-1.3c-1.3,0-2.3-1-2.3-2.3c0-1.3,1-2.3,2.3-2.3h1.3c1.3,0,2.3,1,2.3,2.3
				C980.5,189.5,979.4,190.6,978.2,190.6z"/>
		</g>
		<g>
			<path class="st20" d="M845.7,190.6h-1.3c-1.3,0-2.3-1-2.3-2.3c0-1.3,1-2.3,2.3-2.3h1.3c1.3,0,2.3,1,2.3,2.3
				C848,189.5,847,190.6,845.7,190.6z"/>
		</g>
		<g>
			<path class="st20" d="M845.7,292.5h-1.3c-1.3,0-2.3-1-2.3-2.3s1-2.3,2.3-2.3h1.3c1.3,0,2.3,1,2.3,2.3
				C848,291.4,847,292.5,845.7,292.5z"/>
		</g>
		<g>
			<path class="st20" d="M978.2,292.5h-1.3c-1.3,0-2.3-1-2.3-2.3s1-2.3,2.3-2.3h1.3c1.3,0,2.3,1,2.3,2.3
				C980.5,291.4,979.4,292.5,978.2,292.5z"/>
		</g>
		<g>
			<path class="st20" d="M929.2,223.9h-35.9c-1.3,0-2.4-1.1-2.4-2.4v-5.3c0-1.3,1.1-2.4,2.4-2.4h35.9c1.3,0,2.4,1.1,2.4,2.4v5.3
				C931.7,222.9,930.6,223.9,929.2,223.9z"/>
			<g>
				<g>
					<path class="st16" d="M957.1,236.4h-91.7c-1.3,0-2.3-1-2.3-2.3s1-2.3,2.3-2.3h91.7c1.3,0,2.3,1,2.3,2.3
						C959.4,235.4,958.4,236.4,957.1,236.4z"/>
				</g>
			</g>
			<g>
				<g>
					<path class="st16" d="M957.1,246.6h-91.7c-1.3,0-2.3-1-2.3-2.3s1-2.3,2.3-2.3h91.7c1.3,0,2.3,1,2.3,2.3
						S958.4,246.6,957.1,246.6z"/>
				</g>
			</g>
			<g>
				<g>
					<path class="st16" d="M923.7,256.8h-43c-1.3,0-2.3-1-2.3-2.3c0-1.3,1-2.3,2.3-2.3h43c1.3,0,2.3,1,2.3,2.3
						C926,255.8,925,256.8,923.7,256.8z"/>
				</g>
			</g>
			<g>
				<g>
					<path class="st24" d="M880.7,277.2h-15.3c-1.3,0-2.3-1-2.3-2.3c0-1.3,1-2.3,2.3-2.3h15.3c1.3,0,2.3,1,2.3,2.3
						C883,276.1,882,277.2,880.7,277.2z"/>
				</g>
			</g>
			<path class="st21" d="M929.2,213.8h-7.1c1.4,0,2.5,1.1,2.5,2.5v5.3c0,1.4-1.1,2.5-2.5,2.5h7.1c1.4,0,2.5-1.1,2.5-2.5v-5.3
				C931.7,214.9,930.6,213.8,929.2,213.8z"/>
		</g>
		<g>
			<g>
				<path class="st18" d="M954.8,280.4l1.8,3.6c0.4,0.7,0.5,1.5,0.5,2.3V308c0,1.7-1.7,3-3.4,2.4l-6.8-2.3l-4.3-3.9
					c-0.5-0.2-1.1-0.2-1.6,0l-4.3,3.9l-6.8,2.3c-1.6,0.5-3.4-0.7-3.4-2.4v-21.7c0-0.8,0.2-1.6,0.5-2.3l1.8-3.6L954.8,280.4z"/>
				<path class="st19" d="M956.6,284l-1.8-3.6l-7.1,0l1.8,3.6c0.4,0.7,0.5,1.5,0.5,2.3V308c0,0.4-0.1,0.8-0.2,1.1l4,1.3
					c1.6,0.5,3.4-0.7,3.4-2.4v-21.7C957.1,285.4,956.9,284.7,956.6,284L956.6,284z"/>
				<path class="st15" d="M946.9,280.4l-10.2,0v27.7l4.3-1.4c0.5-0.2,1.1-0.2,1.6,0l4.3,1.4L946.9,280.4L946.9,280.4z"/>
				<circle class="st22" cx="941.8" cy="264.7" r="20.4"/>
				<g>
					<ellipse class="st23" cx="941.8" cy="264.7" rx="10.2" ry="10.2"/>
					<path class="st23" d="M941.8,244.3c-1.2,0-2.4,0.1-3.5,0.3c9.6,1.7,16.8,10,16.8,20.1c0,10-7.3,18.4-16.8,20.1
						c1.1,0.2,2.3,0.3,3.5,0.3c11.3,0,20.4-9.1,20.4-20.4C962.2,253.4,953.1,244.3,941.8,244.3L941.8,244.3z"/>
				</g>
			</g>
			<g>
				<path class="st16" d="M942.5,267h-1.3c-1.3,0-2.3-1-2.3-2.3s1-2.3,2.3-2.3h1.3c1.3,0,2.3,1,2.3,2.3S943.8,267,942.5,267z"/>
			</g>
		</g>
	</g>
	<g>
		<path class="st16" d="M934.4,203.5h-46.1c-1.3,0-2.4-1.1-2.4-2.4v-35.5h50.9v35.5C936.8,202.5,935.7,203.5,934.4,203.5z"/>
		<path class="st17" d="M929.7,165.6v35.5c0,1.4-1.1,2.5-2.5,2.5h7.1c1.4,0,2.5-1.1,2.5-2.5v-35.5H929.7z"/>
		<path class="st17" d="M885.8,195.7h50.9V191h-50.9V195.7z"/>
		<path class="st16" d="M959.8,167.9h-97c-1.3,0-2.4-1.1-2.4-2.4v-5.3c0-1.3,1.1-2.4,2.4-2.4h97c1.3,0,2.4,1.1,2.4,2.4v5.3
			C962.3,166.8,961.2,167.9,959.8,167.9z"/>
		<path class="st17" d="M959.8,157.7h-7.1c1.4,0,2.5,1.1,2.5,2.5v5.3c0,1.4-1.1,2.5-2.5,2.5h7.1c1.4,0,2.5-1.1,2.5-2.5v-5.3
			C962.3,158.8,961.1,157.7,959.8,157.7z"/>
		<g>
			<g>
				<path class="st25" d="M952.1,192.2c-1.3,0-2.3-1-2.3-2.3v-32.2c0-1.3,1-2.3,2.3-2.3c1.3,0,2.3,1,2.3,2.3v32.2
					C954.4,191.2,953.3,192.2,952.1,192.2z"/>
			</g>
		</g>
		<path class="st22" d="M957.2,193.3c0-2.9-2.4-5.2-5.3-5.1c-2.7,0.1-4.8,2.5-4.8,5.2v7.5c0,1.4,1.1,2.5,2.5,2.5h5.1
			c1.4,0,2.5-1.1,2.5-2.5L957.2,193.3L957.2,193.3z"/>
		<path class="st23" d="M951.8,188.3c-1.3,0.1-2.4,0.6-3.3,1.4c0.9,0.9,1.5,2.2,1.5,3.6v7.6c0,1.1-0.6,2-1.6,2.3
			c0.3,0.1,0.6,0.2,1,0.2h5.1c1.4,0,2.5-1.1,2.5-2.5v-7.6C957.2,190.5,954.7,188.1,951.8,188.3L951.8,188.3z"/>
	</g>
</g>
<g>
	<g>
		<path class="st26" d="M570.7,181.9h113v31.4h-113V181.9z"/>
	</g>
	<path class="st27" d="M671.2,181.9h12.6v31.4h-12.6V181.9z"/>
	<path class="st28" d="M635.6,181.9h35.8v31.4h-35.8V181.9z"/>
	<g>
		<g>
			<g>
				<path class="st29" d="M707.2,301.2H595c-9.2,0-16.6-7.4-16.6-16.6S585.8,268,595,268h112.1V301.2z"/>
				<path class="st30" d="M695.4,268h11.7v33.2h-11.7V268z"/>
				<g>
					<path class="st31" d="M713,303.4H595c-10.4,0-18.8-8.4-18.8-18.8c0-10.4,8.4-18.8,18.8-18.8h118c1.2,0,2.2,1,2.2,2.2
						c0,1.2-1,2.2-2.2,2.2H595c-7.9,0-14.4,6.5-14.4,14.4c0,7.9,6.5,14.4,14.4,14.4h118c1.2,0,2.2,1,2.2,2.2S714.2,303.4,713,303.4z
						"/>
				</g>
				<g>
					<g>
						<path class="st32" d="M707.2,281.3h-90.5c-1.2,0-2.2-1-2.2-2.2s1-2.2,2.2-2.2h90.5V281.3z"/>
					</g>
					<g>
						<path class="st32" d="M707.2,292.4h-66.5c-1.2,0-2.2-1-2.2-2.2s1-2.2,2.2-2.2h66.5V292.4z"/>
					</g>
				</g>
			</g>
			<g>
				<path class="st29" d="M688.4,263.7H579.2c-5.9,0-10.7-4.8-10.7-10.7c0-5.9,4.8-10.7,10.7-10.7h109.1L688.4,263.7L688.4,263.7z"
					/>
				<path class="st30" d="M676.6,242.2h11.7v21.5h-11.7V242.2z"/>
				<g>
					<path class="st33" d="M695.1,265.8H579.2c-7.1,0-12.9-5.8-12.9-12.9c0-7.1,5.8-12.9,12.9-12.9h115.8c1.2,0,2.2,1,2.2,2.2
						c0,1.2-1,2.2-2.2,2.2H579.2c-4.7,0-8.5,3.8-8.5,8.5s3.8,8.5,8.5,8.5h115.8c1.2,0,2.2,1,2.2,2.2S696.3,265.8,695.1,265.8z"/>
				</g>
				<g>
					<g>
						<path class="st32" d="M688.4,255.6h-30.9c-1.2,0-2.2-1-2.2-2.2c0-1.2,1-2.2,2.2-2.2h30.9V255.6z"/>
					</g>
				</g>
			</g>
			<g>
				<path class="st29" d="M604.8,155.8h87.6c6.6,0,11.9,5.3,11.9,11.9c0,6.6-5.3,11.9-11.9,11.9h-87.6V155.8z"/>
				<path class="st30" d="M692.4,155.8h-11.7c6.6,0,11.9,5.3,11.9,11.9c0,6.6-5.3,11.9-11.9,11.9h11.7c6.6,0,11.9-5.3,11.9-11.9
					C704.4,161.2,699,155.8,692.4,155.8L692.4,155.8z"/>
				<g>
					<path class="st34" d="M692.4,181.9h-95.1c-1.2,0-2.2-1-2.2-2.2s1-2.2,2.2-2.2h95.1c5.4,0,9.7-4.4,9.7-9.7s-4.4-9.7-9.7-9.7
						h-95.1c-1.2,0-2.2-1-2.2-2.2c0-1.2,1-2.2,2.2-2.2h95.1c7.8,0,14.1,6.3,14.1,14.1C706.6,175.6,700.2,181.9,692.4,181.9
						L692.4,181.9z"/>
				</g>
			</g>
			<g>
				<g>
					<path class="st31" d="M583.5,213.4h130.7V240H583.5V213.4z"/>
				</g>
				<path class="st35" d="M674.2,213.4h39.9V240h-39.9V213.4z"/>
				<path class="st36" d="M702.4,213.4h11.7V240h-11.7V213.4z"/>
				<path class="st28" d="M628.4,231.1h-29.9c-2.4,0-4.4-2-4.4-4.4c0-2.4,2-4.4,4.4-4.4h29.9c2.4,0,4.4,2,4.4,4.4
					C632.8,229.1,630.9,231.1,628.4,231.1z"/>
				<g>
					<path class="st28" d="M701.4,228.9h-14.3c-1.2,0-2.2-1-2.2-2.2c0-1.2,1-2.2,2.2-2.2h14.3c1.2,0,2.2,1,2.2,2.2
						C703.6,227.9,702.7,228.9,701.4,228.9z"/>
				</g>
			</g>
			<g>
				<g>
					<path class="st37" d="M661.4,202.6c-1.2,0-2.2-1-2.2-2.2v-5.5c0-1.2,1-2.2,2.2-2.2c1.2,0,2.2,1,2.2,2.2v5.5
						C663.6,201.6,662.7,202.6,661.4,202.6z"/>
				</g>
				<g>
					<path class="st37" d="M653.4,202.6c-1.2,0-2.2-1-2.2-2.2v-5.5c0-1.2,1-2.2,2.2-2.2c1.2,0,2.2,1,2.2,2.2v5.5
						C655.6,201.6,654.6,202.6,653.4,202.6z"/>
				</g>
				<g>
					<path class="st37" d="M645.4,202.6c-1.2,0-2.2-1-2.2-2.2v-5.5c0-1.2,1-2.2,2.2-2.2c1.2,0,2.2,1,2.2,2.2v5.5
						C647.6,201.6,646.6,202.6,645.4,202.6z"/>
				</g>
			</g>
		</g>
		<g>
			<path class="st32" d="M604.8,165.6h50.2c1.2,0,2.2,1,2.2,2.2c0,1.2-1,2.2-2.2,2.2h-50.2V165.6z"/>
		</g>
	</g>
</g>
<g>
	<path class="st31" d="M1113.1,255.9c0,0,26.5,22.5,62.9,22.5c36.4,0,60.4-20.9,60.4-20.9l4.7-5.9v-40.4l-4.7-2.3l-60.4,21.1
		l-62.8-21.1l-2.4,2.3v40.3L1113.1,255.9z"/>
	<path class="st38" d="M1142.5,218.8l-29.2-9.9l-2.4,2.3v40.3l2.2,4.5c0,0,11.3,9.6,29.4,16.3V218.8z"/>
	<path class="st39" d="M1238.6,252.3c-13.7,13-36.7,21.5-62.6,21.5c-25.9,0-48.9-8.5-62.6-21.5c-1.6-1.5-2.5-3.6-2.5-5.8V268
		c0,2.2,0.9,4.3,2.5,5.8c3.9,3.7,8.5,7,13.7,9.8l11.1,5.1c11.1,4.2,24,6.6,37.8,6.6c25.9,0,48.9-8.5,62.6-21.5
		c1.6-1.5,2.5-3.6,2.5-5.8v-21.5C1241.1,248.6,1240.2,250.8,1238.6,252.3L1238.6,252.3z"/>
	<path class="st40" d="M1142.5,268.7c-11.7-3.8-21.7-9.4-29.1-16.4c-1.6-1.5-2.5-3.6-2.5-5.8V268c0,2.2,0.9,4.3,2.5,5.8
		c3.9,3.7,8.5,7,13.7,9.8l11.1,5.1c1.4,0.5,2.8,1,4.3,1.5V268.7z"/>
	<path class="st22" d="M1271.3,197.1l-89.8-32.8c-3.6-1.3-7.5-1.3-11.1,0l-89.8,32.8c-1.4,0.5-1.4,2.6,0,3.1l89.8,32.8
		c3.6,1.3,7.5,1.3,11.1,0l89.8-32.8C1272.8,199.7,1272.8,197.7,1271.3,197.1z"/>
	<path class="st23" d="M1096.9,205.6l94.9-34.6c1.7-0.6,3.4-0.9,5.1-1l-15.3-5.6c-3.6-1.3-7.5-1.3-11.1,0l-89.8,32.8
		c-1.4,0.5-1.4,2.6,0,3.1l15.6,5.7C1096.5,205.8,1096.6,205.7,1096.9,205.6L1096.9,205.6z"/>
	<g>
		<path class="st15" d="M1128.9,292.1c-2.5,0-4.5-2-4.5-4.5v-66.4c0-3.8,2.1-7.2,5.5-8.9l39.9-20c2.2-1.1,5-0.2,6.1,2
			c1.1,2.2,0.2,5-2,6.1l-39.9,20c-0.3,0.2-0.5,0.5-0.5,0.8v66.4C1133.4,290.1,1131.4,292.1,1128.9,292.1z"/>
	</g>
	<g>
		<path class="st40" d="M1128.9,320.9c-2.5,0-4.5-2-4.5-4.5V299c0-2.5,2-4.5,4.5-4.5s4.5,2,4.5,4.5v17.4
			C1133.4,318.9,1131.4,320.9,1128.9,320.9z"/>
	</g>
	<g>
		<path class="st40" d="M1143.5,318c-1.7,0-3.4-1-4.2-2.7l-6.9-15.6c-1-2.3,0-5,2.3-6c2.3-1,5,0,6,2.3l6.9,15.6c1,2.3,0,5-2.3,6
			C1144.7,317.9,1144.1,318,1143.5,318z"/>
	</g>
	<g>
		<path class="st40" d="M1114.2,318c-0.6,0-1.2-0.1-1.8-0.4c-2.3-1-3.3-3.7-2.4-6l6.9-15.8c1-2.3,3.7-3.3,6-2.4c2.3,1,3.3,3.7,2.4,6
			l-6.9,15.8C1117.6,317,1116,318,1114.2,318L1114.2,318z"/>
	</g>
	<path class="st39" d="M1129.1,283.5c-6.2-0.1-11.2,5.1-11.2,11.3v3c0,0.8,0.5,1.5,1.3,1.8l4.2,1.5c3.6,1.3,7.5,1.3,11.1,0l4.2-1.5
		c0.8-0.3,1.3-1,1.3-1.8v-3.3C1139.9,288.5,1135.1,283.6,1129.1,283.5L1129.1,283.5z"/>
	<path class="st40" d="M1128.9,301V297c0-4.8,2.3-9.2,5.8-11.9c-1.6-1-3.5-1.6-5.6-1.7c-6.2-0.1-11.2,5.1-11.2,11.3v3
		c0,0.8,0.5,1.5,1.3,1.8l4.2,1.5c1.9,0.7,3.9,1,5.8,1C1129,301.8,1128.9,301.4,1128.9,301L1128.9,301z"/>
	<path class="st15" d="M1176.2,183.1c-6.2-0.1-11.2,5.1-11.2,11.3v3c0,0.8,0.5,1.5,1.3,1.8l4.2,1.5c3.6,1.3,7.5,1.3,11.1,0l4.2-1.5
		c0.8-0.3,1.3-1,1.3-1.8v-3.3C1187,188.1,1182.2,183.3,1176.2,183.1z"/>
</g>
</svg>
