<?xml version="1.0" encoding="utf-8"?>
<!-- Generator: Adobe Illustrator 23.0.0, SVG Export Plug-In . SVG Version: 6.00 Build 0)  -->
<svg version="1.1" xmlns="http://www.w3.org/2000/svg" xmlns:xlink="http://www.w3.org/1999/xlink" x="0px" y="0px"
	 viewBox="0 0 154.2 154.2" style="enable-background:new 0 0 154.2 154.2;" xml:space="preserve">
<style type="text/css">
	.st0{fill:#223166;}
	.st1{fill:#F68E51;}
</style>
<g id="Layer_1">
	<g>
		<rect x="13.3" y="14.4" class="st0" width="127.7" height="125.1"/>
		<rect x="13.3" y="123.7" class="st1" width="127.7" height="16.1"/>
		<g>
			<path class="st1" d="M61.7,56.4c-3.1,0-5.5,1.3-7.3,3.8c-1.7,2.6-2.6,6.1-2.6,10.6c0,9.3,3.5,14,10.6,14c2.1,0,4.2-0.3,6.2-0.9
				c2-0.6,4-1.3,6.1-2.2v11.1c-4,1.8-8.6,2.7-13.7,2.7c-7.3,0-12.9-2.1-16.8-6.4c-3.9-4.2-5.9-10.4-5.9-18.4c0-5,0.9-9.4,2.8-13.2
				c1.9-3.8,4.6-6.7,8.2-8.8c3.5-2,7.7-3.1,12.5-3.1c5.2,0,10.2,1.1,15,3.4l-4,10.3c-1.8-0.8-3.6-1.5-5.4-2.1
				C65.7,56.6,63.8,56.4,61.7,56.4z"/>
			<path class="st1" d="M115.9,80.1c0,3-0.8,5.7-2.3,8c-1.5,2.3-3.7,4.1-6.6,5.4c-2.9,1.3-6.2,1.9-10.1,1.9c-3.2,0-5.9-0.2-8.1-0.7
				c-2.2-0.5-4.5-1.2-6.8-2.4V80.7c2.5,1.3,5.1,2.3,7.8,3c2.7,0.7,5.2,1.1,7.4,1.1c1.9,0,3.4-0.3,4.3-1c0.9-0.7,1.4-1.5,1.4-2.6
				c0-0.7-0.2-1.2-0.5-1.7c-0.4-0.5-1-1-1.8-1.5c-0.8-0.5-3-1.5-6.4-3.1c-3.2-1.4-5.5-2.8-7.1-4.2c-1.6-1.3-2.8-2.9-3.5-4.6
				c-0.8-1.7-1.1-3.8-1.1-6.2c0-4.5,1.6-7.9,4.9-10.4c3.2-2.5,7.7-3.7,13.4-3.7c5,0,10.1,1.2,15.3,3.5l-4,10.1
				c-4.5-2.1-8.4-3.1-11.7-3.1c-1.7,0-2.9,0.3-3.7,0.9c-0.8,0.6-1.2,1.3-1.2,2.2c0,0.9,0.5,1.8,1.5,2.6c1,0.8,3.7,2.1,8,4.1
				c4.2,1.9,7.1,3.9,8.7,6C115.1,74.1,115.9,76.8,115.9,80.1z"/>
		</g>
	</g>
</g>
<g id="Layer_2">
</g>
<g id="Layer_3">
</g>
</svg>
