<?xml version="1.0" encoding="utf-8"?>
<!-- Generator: Adobe Illustrator 23.0.0, SVG Export Plug-In . SVG Version: 6.00 Build 0)  -->
<svg version="1.1" xmlns="http://www.w3.org/2000/svg" xmlns:xlink="http://www.w3.org/1999/xlink" x="0px" y="0px"
	 viewBox="0 0 690.4 154.2" style="enable-background:new 0 0 690.4 154.2;" xml:space="preserve">
<style type="text/css">
	.st0{fill:#223166;}
	.st1{fill:#F68E51;}
</style>
<g id="Layer_1">
	<g>
		<rect x="15.8" y="14.5" class="st0" width="127.7" height="125.1"/>
		<rect x="15.8" y="123.9" class="st1" width="127.7" height="16.1"/>
		<g>
			<path class="st1" d="M64.3,56.5c-3.1,0-5.5,1.3-7.3,3.8c-1.7,2.6-2.6,6.1-2.6,10.6c0,9.3,3.5,14,10.6,14c2.1,0,4.2-0.3,6.2-0.9
				c2-0.6,4-1.3,6.1-2.2v11.1c-4,1.8-8.6,2.7-13.7,2.7c-7.3,0-12.9-2.1-16.8-6.4c-3.9-4.2-5.9-10.4-5.9-18.4c0-5,0.9-9.4,2.8-13.2
				c1.9-3.8,4.6-6.7,8.2-8.8c3.5-2,7.7-3.1,12.5-3.1c5.2,0,10.2,1.1,15,3.4l-4,10.3c-1.8-0.8-3.6-1.5-5.4-2.1
				C68.2,56.8,66.3,56.5,64.3,56.5z"/>
			<path class="st1" d="M118.4,80.2c0,3-0.8,5.7-2.3,8c-1.5,2.3-3.7,4.1-6.6,5.4c-2.9,1.3-6.2,1.9-10.1,1.9c-3.2,0-5.9-0.2-8.1-0.7
				c-2.2-0.5-4.5-1.2-6.8-2.4V80.9c2.5,1.3,5.1,2.3,7.8,3c2.7,0.7,5.2,1.1,7.4,1.1c1.9,0,3.4-0.3,4.3-1c0.9-0.7,1.4-1.5,1.4-2.6
				c0-0.7-0.2-1.2-0.5-1.7c-0.4-0.5-1-1-1.8-1.5c-0.8-0.5-3-1.5-6.4-3.1c-3.2-1.4-5.5-2.8-7.1-4.2c-1.6-1.3-2.8-2.9-3.5-4.6
				c-0.8-1.7-1.1-3.8-1.1-6.2c0-4.5,1.6-7.9,4.9-10.4c3.2-2.5,7.7-3.7,13.4-3.7c5,0,10.1,1.2,15.3,3.5l-4,10.1
				c-4.5-2.1-8.4-3.1-11.7-3.1c-1.7,0-2.9,0.3-3.7,0.9c-0.8,0.6-1.2,1.3-1.2,2.2c0,0.9,0.5,1.8,1.5,2.6c1,0.8,3.7,2.1,8,4.1
				c4.2,1.9,7.1,3.9,8.7,6C117.6,74.2,118.4,76.9,118.4,80.2z"/>
		</g>
	</g>
	<g>
		<path class="st1" d="M216,79.2c-3.4,11.4-14.1,19.5-27,19.5c-16.8,0-28.9-13.3-28.9-28.7c0-14.7,11.4-28.6,28.9-28.6
			c15.9,0.1,24.9,11.8,27.1,19.8h-11.7c-1.7-3.8-6.6-10-15.4-10.1c-10.7,0-17.7,9-17.7,18.8c0,10.1,7.2,18.9,17.7,18.9
			c9.8,0,14.3-7.8,15.4-9.8H216z"/>
		<path class="st1" d="M227,97.7h-12.1l22.4-55.2h9.8l21.8,55.2h-12.2l-4-10.8h-21.8L227,97.7z M241.7,55.6L233.8,78h15.9
			L241.7,55.6z"/>
		<path class="st1" d="M274.7,97.7V42.5h15l14.2,39.6l13.9-39.6h15.1v55.2h-10.3l0.3-44.2l-15.4,44.2h-7.3l-15.5-44.2l0.3,44.2
			H274.7z"/>
		<path class="st1" d="M359.8,42.5c9.3,0,13,1.3,16.3,3.8c4,3.3,6.3,8.6,6.3,14.1s-2.3,11.1-5.8,13.9c-3.7,3.1-7.5,4.4-15.5,4.4
			h-6.8v18.9h-11.1V42.5H359.8z M354.2,69h6.6c2.5,0,5-0.2,7.2-1.4c2-1,3.7-3.5,3.7-7s-1.6-5.8-3.8-6.9c-2.2-1.2-4.8-1.4-7.5-1.4
			h-6.1V69z"/>
		<path class="st1" d="M399.3,42.5v33.9c0,2.8,0.1,5.6,1.6,8.4c1.3,2.4,3.8,4.2,7.5,4.2c3.7,0,6.2-1.7,7.4-4
			c1.6-2.7,1.6-5.6,1.6-8.6V42.5h11.1v33.9c0,8.2-1.6,13.1-5.8,17c-3.4,3.2-8.1,5.3-14.2,5.3c-4,0-10.3-1-14.4-5.3
			c-5.1-4.8-5.8-9.6-5.8-17V42.5H399.3z"/>
		<path class="st1" d="M446.8,80.5c0.4,7.5,5.4,8.9,7.8,8.9c4.3,0,7.5-3.4,7.5-7.3c0-4.7-4-5.9-11.6-8.9
			c-4.2-1.5-13.8-4.9-13.8-15.4c0-10.6,9.3-16.3,18.3-16.3c7.3,0,17,3.9,17.4,16.1h-11c-0.4-2.5-1.4-6.8-6.9-6.8
			c-3.7,0-6.8,2.5-6.8,6.3c-0.1,4.1,2.9,5.1,12.2,9c8.4,3.7,13.1,7.7,13.1,15.5c0,8.9-5.4,17.1-18.4,17.1c-12.5,0-19-7.5-18.9-18.2
			H446.8z"/>
		<path class="st1" d="M510.9,80.5c0.4,7.5,5.4,8.9,7.8,8.9c4.3,0,7.5-3.4,7.5-7.3c0-4.7-4-5.9-11.6-8.9
			c-4.2-1.5-13.8-4.9-13.8-15.4c0-10.6,9.3-16.3,18.3-16.3c7.3,0,17,3.9,17.4,16.1h-11c-0.4-2.5-1.4-6.8-6.9-6.8
			c-3.7,0-6.8,2.5-6.8,6.3c-0.1,4.1,2.9,5.1,12.2,9c8.4,3.7,13.1,7.7,13.1,15.5c0,8.9-5.4,17.1-18.4,17.1c-12.5,0-19-7.5-18.9-18.2
			H510.9z"/>
		<path class="st1" d="M542,70.6c0-17.7,13.6-29.1,28.9-29.1c16.7,0,29,13,29,28.6s-12.2,28.6-29.1,28.6C554,98.7,542,85.4,542,70.6
			L542,70.6z M553.1,70.1c0,10.1,7.2,18.9,18,18.9c11.2,0,17.7-9.7,17.7-18.8c0-9.2-6.6-18.9-17.8-18.9
			C560,51.2,553.1,60.3,553.1,70.1L553.1,70.1z"/>
		<path class="st1" d="M607.9,42.5h29.3v9.8h-18.2v13.2h17.7v9.8h-17.7v22.4h-11.1V42.5z"/>
		<path class="st1" d="M652.5,52.3h-11.9v-9.8h34.9v9.8h-11.9v45.4h-11.1V52.3z"/>
	</g>
</g>
<g id="Layer_2">
</g>
<g id="Layer_3">
</g>
</svg>
