<?xml version="1.0" encoding="utf-8"?>
<!-- Generator: Adobe Illustrator 23.0.0, SVG Export Plug-In . SVG Version: 6.00 Build 0)  -->
<svg version="1.1" xmlns="http://www.w3.org/2000/svg" xmlns:xlink="http://www.w3.org/1999/xlink" x="0px" y="0px"
	 viewBox="0 0 588.3 713.1" style="enable-background:new 0 0 588.3 713.1;" xml:space="preserve">
<style type="text/css">
	.st0{fill:#223166;}
	.st1{fill:#F68E51;}
</style>
<g id="Layer_1">
	<rect x="15.6" y="15.3" class="st0" width="557.8" height="546.7"/>
	<rect x="15.6" y="493.3" class="st1" width="557.8" height="70.4"/>
	<g>
		<path class="st1" d="M227.2,198.9c-13.6,0-24.2,5.6-31.9,16.7c-7.6,11.2-11.4,26.5-11.4,46.1c0,40.8,15.5,61.1,46.5,61.1
			c9.4,0,18.4-1.3,27.2-3.9c8.8-2.6,17.6-5.7,26.5-9.4v48.4c-17.7,7.8-37.7,11.7-60,11.7c-32,0-56.5-9.3-73.5-27.8
			c-17-18.5-25.6-45.3-25.6-80.4c0-21.9,4.1-41.2,12.4-57.8c8.3-16.6,20.1-29.4,35.6-38.3c15.5-8.9,33.7-13.4,54.7-13.4
			c22.9,0,44.8,5,65.6,14.9l-17.5,45c-7.8-3.7-15.6-6.8-23.5-9.3C244.6,200.1,236.2,198.9,227.2,198.9z"/>
		<path class="st1" d="M463.9,302.4c0,13.1-3.3,24.8-10,35c-6.7,10.2-16.3,18.1-28.8,23.8c-12.6,5.6-27.3,8.5-44.2,8.5
			c-14.1,0-25.9-1-35.5-3c-9.6-2-19.5-5.4-29.8-10.4v-51c10.9,5.6,22.3,10,34,13.1c11.8,3.1,22.6,4.7,32.4,4.7
			c8.5,0,14.7-1.5,18.7-4.4c4-2.9,5.9-6.7,5.9-11.4c0-2.9-0.8-5.4-2.4-7.6c-1.6-2.2-4.2-4.4-7.7-6.6c-3.5-2.2-12.9-6.8-28.2-13.6
			c-13.8-6.3-24.2-12.4-31.1-18.3c-6.9-5.9-12-12.6-15.4-20.3c-3.3-7.6-5-16.7-5-27.1c0-19.5,7.1-34.7,21.3-45.6
			c14.2-10.9,33.7-16.4,58.5-16.4c21.9,0,44.3,5.1,67.1,15.2l-17.5,44.2c-19.8-9.1-36.9-13.6-51.3-13.6c-7.4,0-12.8,1.3-16.2,3.9
			c-3.4,2.6-5.1,5.8-5.1,9.7c0,4.2,2.1,7.9,6.4,11.2c4.3,3.3,16,9.3,35,18c18.3,8.2,30.9,17,38,26.4
			C460.3,276.3,463.9,288.1,463.9,302.4z"/>
	</g>
	<g>
		<path class="st1" d="M46.8,623.4c-5.5,0-9.8,2-13,5.9c-3.2,3.9-4.7,9.4-4.7,16.3c0,7.3,1.5,12.8,4.6,16.5c3,3.7,7.4,5.6,13.2,5.6
			c2.5,0,4.9-0.2,7.2-0.8c2.3-0.5,4.7-1.1,7.3-1.9v8.3c-4.6,1.8-9.8,2.6-15.6,2.6c-8.6,0-15.2-2.6-19.8-7.9
			c-4.6-5.3-6.9-12.8-6.9-22.6c0-6.2,1.1-11.6,3.3-16.2c2.2-4.6,5.5-8.2,9.7-10.6c4.2-2.5,9.2-3.7,14.9-3.7c6,0,11.5,1.3,16.6,3.8
			l-3.4,8.1c-2-0.9-4.1-1.8-6.3-2.5S49.2,623.4,46.8,623.4z"/>
		<path class="st1" d="M110.2,675.2l-5.9-16.5H82l-5.7,16.5H66.1l21.9-59.5h10.4l21.9,59.5H110.2z M101.9,650.4l-5.5-16.1
			c-0.4-1.1-1-2.8-1.7-5.1c-0.7-2.3-1.2-4-1.5-5.1c-0.7,3.3-1.8,7-3.2,10.9l-5.3,15.4H101.9z"/>
		<path class="st1" d="M153.5,675.2l-17-49.5h-0.3c0.5,7.3,0.7,14.2,0.7,20.7v28.8h-8.7v-59.3h13.5l16.3,47.1h0.2l16.8-47.1h13.6
			v59.3h-9.2v-29.3c0-2.9,0.1-6.8,0.2-11.5c0.1-4.7,0.3-7.6,0.4-8.6h-0.3L162,675.2H153.5z"/>
		<path class="st1" d="M242.8,633.8c0,6.2-2,10.9-6,14.2c-4,3.3-9.7,4.9-17.1,4.9h-6.1v22.2H204v-59.3h16.9c7.3,0,12.8,1.5,16.5,4.5
			C241,623.5,242.8,627.9,242.8,633.8z M213.5,644.9h5.1c4.9,0,8.5-0.9,10.8-2.6c2.3-1.7,3.4-4.4,3.4-8.1c0-3.4-1-5.9-3.1-7.6
			c-2.1-1.7-5.3-2.5-9.6-2.5h-6.7V644.9z"/>
		<path class="st1" d="M300.4,615.9v38.3c0,4.4-0.9,8.2-2.8,11.5c-1.9,3.3-4.5,5.8-8.1,7.6c-3.5,1.8-7.7,2.7-12.6,2.7
			c-7.3,0-12.9-1.9-17-5.8c-4-3.9-6.1-9.2-6.1-16v-38.2h9.6v37.5c0,4.9,1.1,8.5,3.4,10.8c2.2,2.3,5.7,3.5,10.3,3.5
			c9,0,13.6-4.8,13.6-14.4v-37.4H300.4z"/>
		<path class="st1" d="M349.2,659.1c0,5.3-1.9,9.4-5.7,12.4c-3.8,3-9,4.5-15.6,4.5c-6.6,0-12.1-1-16.3-3.1v-9.2
			c2.7,1.3,5.5,2.3,8.5,3c3,0.7,5.8,1.1,8.4,1.1c3.8,0,6.6-0.7,8.4-2.2c1.8-1.5,2.7-3.4,2.7-5.9c0-2.2-0.8-4.1-2.5-5.6
			s-5.1-3.4-10.3-5.5c-5.3-2.2-9.1-4.7-11.3-7.5c-2.2-2.8-3.3-6.2-3.3-10.1c0-4.9,1.7-8.8,5.2-11.7c3.5-2.8,8.1-4.3,14-4.3
			c5.6,0,11.2,1.2,16.8,3.7l-3,7.9c-5.2-2.2-9.9-3.3-14-3.3c-3.1,0-5.5,0.7-7.1,2c-1.6,1.4-2.4,3.2-2.4,5.4c0,1.5,0.3,2.9,1,4
			c0.6,1.1,1.7,2.1,3.2,3.1s4.1,2.3,7.9,3.8c4.3,1.8,7.5,3.5,9.5,5.1c2,1.6,3.5,3.3,4.4,5.3C348.8,654.1,349.2,656.4,349.2,659.1z"
			/>
		<path class="st1" d="M415.7,659.1c0,5.3-1.9,9.4-5.7,12.4c-3.8,3-9,4.5-15.6,4.5c-6.6,0-12.1-1-16.3-3.1v-9.2
			c2.7,1.3,5.5,2.3,8.5,3c3,0.7,5.8,1.1,8.4,1.1c3.8,0,6.6-0.7,8.4-2.2c1.8-1.5,2.7-3.4,2.7-5.9c0-2.2-0.8-4.1-2.5-5.6
			s-5.1-3.4-10.3-5.5c-5.3-2.2-9.1-4.7-11.3-7.5c-2.2-2.8-3.3-6.2-3.3-10.1c0-4.9,1.7-8.8,5.2-11.7c3.5-2.8,8.1-4.3,14-4.3
			c5.6,0,11.2,1.2,16.8,3.7l-3,7.9c-5.2-2.2-9.9-3.3-14-3.3c-3.1,0-5.5,0.7-7.1,2c-1.6,1.4-2.4,3.2-2.4,5.4c0,1.5,0.3,2.9,1,4
			c0.6,1.1,1.7,2.1,3.2,3.1s4.1,2.3,7.9,3.8c4.3,1.8,7.5,3.5,9.5,5.1c2,1.6,3.5,3.3,4.4,5.3C415.3,654.1,415.7,656.4,415.7,659.1z"
			/>
		<path class="st1" d="M479.1,645.5c0,9.6-2.4,17.1-7.2,22.5c-4.8,5.3-11.5,8-20.3,8c-8.8,0-15.6-2.7-20.4-8
			c-4.7-5.3-7.1-12.9-7.1-22.6c0-9.8,2.4-17.3,7.2-22.5c4.8-5.2,11.6-7.9,20.4-7.9c8.7,0,15.5,2.7,20.2,8
			C476.8,628.3,479.1,635.8,479.1,645.5z M434.4,645.5c0,7.3,1.5,12.8,4.4,16.6c2.9,3.8,7.2,5.7,13,5.7c5.7,0,10-1.9,12.9-5.6
			c2.9-3.7,4.4-9.3,4.4-16.7c0-7.3-1.4-12.8-4.3-16.5c-2.9-3.8-7.2-5.6-12.9-5.6c-5.7,0-10.1,1.9-13,5.6
			C435.8,632.7,434.4,638.2,434.4,645.5z"/>
		<path class="st1" d="M501.2,675.2h-9.5v-59.3h33.1v8.2h-23.6v18.5h22.1v8.2h-22.1V675.2z"/>
		<path class="st1" d="M555.7,675.2h-9.6v-50.9h-17.2v-8.3h44.1v8.3h-17.2V675.2z"/>
	</g>
</g>
<g id="Layer_2">
</g>
<g id="Layer_3">
</g>
</svg>
